<?xml version="1.0" encoding="UTF-8" standalone="no"?>
<!-- Created with Inkscape (http://www.inkscape.org/) -->

<svg
   xmlns:dc="http://purl.org/dc/elements/1.1/"
   xmlns:cc="http://creativecommons.org/ns#"
   xmlns:rdf="http://www.w3.org/1999/02/22-rdf-syntax-ns#"
   xmlns:svg="http://www.w3.org/2000/svg"
   xmlns="http://www.w3.org/2000/svg"
   xmlns:sodipodi="http://sodipodi.sourceforge.net/DTD/sodipodi-0.dtd"
   xmlns:inkscape="http://www.inkscape.org/namespaces/inkscape"
   version="1.1"
   id="svg912"
   width="662.40454"
   height="542.15234"
   viewBox="0 0 662.40455 542.15235"
   sodipodi:docname="hathi_left.svg"
   inkscape:version="0.92.3 (2405546, 2018-03-11)"
   inkscape:export-filename="C:\Users\mbrin\Documents\NetBeansProjects\abbozza-worlds\pkg\worlds\hathi\img\hathi_left.png"
   inkscape:export-xdpi="11.594124"
   inkscape:export-ydpi="11.594124">
  <metadata
     id="metadata918">
    <rdf:RDF>
      <cc:Work
         rdf:about="">
        <dc:format>image/svg+xml</dc:format>
        <dc:type
           rdf:resource="http://purl.org/dc/dcmitype/StillImage" />
        <dc:title />
      </cc:Work>
    </rdf:RDF>
  </metadata>
  <defs
     id="defs916" />
  <sodipodi:namedview
     pagecolor="#ffffff"
     bordercolor="#666666"
     borderopacity="1"
     objecttolerance="10"
     gridtolerance="10"
     guidetolerance="10"
     inkscape:pageopacity="0"
     inkscape:pageshadow="2"
     inkscape:window-width="1536"
     inkscape:window-height="801"
     id="namedview914"
     showgrid="false"
     showguides="false"
     inkscape:zoom="0.11281585"
     inkscape:cx="-2928.1135"
     inkscape:cy="-457.55715"
     inkscape:window-x="-8"
     inkscape:window-y="-8"
     inkscape:window-maximized="1"
     inkscape:current-layer="svg912" />
  <path
     style="fill:#e6e6e6;fill-opacity:1;stroke:none;stroke-width:1px;stroke-linecap:butt;stroke-linejoin:miter;stroke-opacity:1"
     d="m 373.18919,283.65798 c 13.08424,29.42172 35.73653,85.496 13.85,114.67804 -33.76411,45.01881 -141.69744,-13.06914 -178.94205,-25.48401 -16.94787,-5.64929 -54.00759,-43.48159 -66.48002,-55.95402 -11.20309,-11.20309 -22.68062,-35.97662 -33.24001,-46.53601 -26.638252,-26.63825 -7.756,-59.55784 -7.756,-92.51803 0,-31.16979 -8.626512,-79.016273 27.14601,-89.748033 64.38558,14.677273 85.19422,84.424133 151.24204,117.448043 24.80454,12.40227 62.80603,-23.064 83.10003,-2.77 9.80579,9.80579 42.49484,53.31809 21.606,62.60202"
     id="path1505"
     inkscape:connector-curvature="0"
     sodipodi:nodetypes="cssssscssc" />
  <path
     style="fill:#e6e6e6;fill-opacity:1;stroke:#000000;stroke-width:10;stroke-linecap:butt;stroke-linejoin:miter;stroke-miterlimit:4;stroke-dasharray:none;stroke-opacity:1"
     d="m 80.929698,142.17977 c -9.02446,3.9482 -21.62648,30.74693 -24.97326,46.12707 -6.94392,31.91079 -1.45164,63.72041 -2.74216,97.93432 -1.29052,34.21391 -0.4303,81.48113 -5.09258,107.33601 -4.66228,25.85488 -7.36962,39.90245 -15.27776,47.79195 -7.90814,7.8895 -17.36343,0.78248 -22.32902,5.09258 -4.9655799,4.3101 -7.2947399,13.32896 -3.5256399,20.37034 3.7690999,7.04138 15.7671299,3.05414 25.0711899,3.52564 9.30406,0.4715 17.48484,-1.94275 30.55551,-1.17521 13.07067,0.76754 36.48546,11.23401 47.400212,7.443 10.91475,-3.79101 15.80556,-6.49469 14.49428,-15.66949 -1.31128,-9.1748 -23.32993,-6.46046 -29.380302,-17.62817 -6.05037,-11.16771 0.12359,-13.19427 1.56695,-41.91589 1.44336,-28.72162 9.972172,-111.49883 18.803392,-169.62224 2.35179,-14.74618 5.09258,-29.3803 5.09258,-29.3803"
     id="path1475"
     inkscape:connector-curvature="0"
     sodipodi:nodetypes="cszzzzzzzzzzzcc" />
  <path
     style="fill:#e6e6e6;fill-opacity:1;stroke:#000000;stroke-width:10;stroke-linecap:butt;stroke-linejoin:miter;stroke-miterlimit:4;stroke-dasharray:none;stroke-opacity:1"
     d="m 344.38118,76.461917 c 0,0 84.02673,-10.38246 118.00204,-9.418 33.97531,0.96446 59.79187,3.86162 84.76202,11.634 24.97015,7.77238 45.60312,13.79916 63.71002,32.132013 18.10691,18.33285 28.62336,47.74041 36.56401,74.79002 7.94066,27.04961 8.51683,60.33156 9.97201,85.31603 0.54447,32.65939 -16.62001,125.20404 -16.62001,125.20404 0,0 6.11293,-156.9007 -12.188,-183.92806 -5.62702,42.89924 -8.31543,74.71422 -16.06601,114.67804 -7.75057,39.96382 -19.72958,92.17376 -31.02401,124.65003 -11.29443,32.47627 -10.71076,54.44941 -32.13201,70.91202 -21.42125,16.46261 -53.10535,15.40565 -83.10002,13.85001 -29.99467,-1.55564 -92.24103,-16.06601 -92.24103,-16.06601"
     id="path1481"
     inkscape:connector-curvature="0"
     sodipodi:nodetypes="czzzzccczzzzc" />
  <path
     style="fill:#e6e6e6;fill-opacity:1;stroke:#000000;stroke-width:10;stroke-linecap:butt;stroke-linejoin:miter;stroke-miterlimit:4;stroke-dasharray:none;stroke-opacity:1"
     d="m 108.37711,272.57798 c 0,0 20.41706,3.59379 36.01002,44.87402 15.59296,41.28022 51.52201,203.87205 51.52201,203.87205 57.43898,19.56091 115.59377,20.51094 174.51005,1.662 l -0.554,-142.37804"
     id="path1477"
     inkscape:connector-curvature="0"
     sodipodi:nodetypes="czccc" />
  <path
     style="fill:none;stroke:#000000;stroke-width:10;stroke-linecap:butt;stroke-linejoin:miter;stroke-miterlimit:4;stroke-dasharray:none;stroke-opacity:1"
     d="m 277.62416,531.85006 c -4.35489,-26.14089 -27.27058,-43.16366 -44.04301,-18.00501 -3.49099,5.23649 -2.8331,12.8051 -3.047,13.01901"
     id="path1485"
     inkscape:connector-curvature="0"
     sodipodi:nodetypes="csc" />
  <path
     style="fill:none;stroke:#000000;stroke-width:10;stroke-linecap:butt;stroke-linejoin:miter;stroke-miterlimit:4;stroke-dasharray:none;stroke-opacity:1"
     d="m 230.53415,526.86406 c 2.83072,-29.827 -27.84112,-36.21126 -36.56402,-14.40401"
     id="path1487"
     inkscape:connector-curvature="0"
     sodipodi:nodetypes="cc" />
  <path
     style="fill:none;stroke:#000000;stroke-width:1px;stroke-linecap:butt;stroke-linejoin:miter;stroke-opacity:1"
     d="m 259.61916,502.48805 -8.03301,-1.939"
     id="path1489"
     inkscape:connector-curvature="0" />
  <path
     style="fill:none;stroke:#000000;stroke-width:10;stroke-linecap:butt;stroke-linejoin:miter;stroke-miterlimit:4;stroke-dasharray:none;stroke-opacity:1"
     d="m 371.52719,513.56805 c 12.00486,-33.69871 48.47501,-8.46748 48.47501,11.634"
     id="path1491"
     inkscape:connector-curvature="0" />
  <path
     style="fill:none;stroke:#000000;stroke-width:10;stroke-linecap:butt;stroke-linejoin:miter;stroke-miterlimit:4;stroke-dasharray:none;stroke-opacity:1"
     d="m 468.75422,533.78906 c 1.12243,-16.91118 -22.24834,-41.46168 -37.39501,-26.31501 -4.32814,4.32814 -7.32441,16.44156 -13.85001,15.789"
     id="path1493"
     inkscape:connector-curvature="0" />
  <path
     style="fill:none;stroke:#000000;stroke-width:1px;stroke-linecap:butt;stroke-linejoin:miter;stroke-opacity:1"
     d="m 402.5512,498.88705 1.108,-3.047"
     id="path1495"
     inkscape:connector-curvature="0" />
  <path
     style="fill:#e6e6e6;fill-opacity:1;stroke:#000000;stroke-width:10;stroke-linecap:butt;stroke-linejoin:miter;stroke-miterlimit:4;stroke-dasharray:none;stroke-opacity:1"
     d="m 119.22201,70.393917 c 0,0 56.43357,-49.5395 85.20286,-57.977118 28.76929,-8.437623 51.6174,-12.05063307 79.91441,1.566949 28.29701,13.617579 56.61826,49.577479 69.33749,83.440039 12.71923,33.862563 8.06654,77.253113 2.74216,108.511233 -5.32438,31.25812 -18.69309,54.10841 -38.78198,75.6053 -20.08889,21.49688 -76.38878,40.34893 -76.38878,40.34893"
     id="path1467"
     inkscape:connector-curvature="0"
     sodipodi:nodetypes="czzzzzc" />
  <path
     style="fill:#ffffff;fill-opacity:1;stroke:#000000;stroke-width:9.26948643;stroke-miterlimit:4;stroke-dasharray:none;stroke-opacity:1"
     d="M 83.404548,130.52559 A 24.261232,62.847351 0 0 0 107.66578,193.37294 24.261232,62.847351 0 0 0 131.92702,130.52559 24.261232,62.847351 0 0 0 107.66578,67.678237 24.261232,62.847351 0 0 0 83.404548,130.52559 Z"
     id="path1469"
     inkscape:connector-curvature="0" />
  <path
     style="fill:#ffffff;fill-opacity:1;stroke:#000000;stroke-width:1px;stroke-linecap:butt;stroke-linejoin:miter;stroke-opacity:1"
     d="m 98.959108,72.583917 v -1.108"
     id="path1507"
     inkscape:connector-curvature="0" />
  <path
     style="fill:none;stroke:#000000;stroke-width:1px;stroke-linecap:butt;stroke-linejoin:miter;stroke-opacity:1"
     d="m 88.433098,87.541917 6.09401,-9.972"
     id="path1509"
     inkscape:connector-curvature="0" />
  <path
     style="fill:#000000;fill-opacity:1;stroke:#000000;stroke-width:8.89774227;stroke-miterlimit:4;stroke-dasharray:none;stroke-opacity:1"
     d="m 91.053408,165.19434 a 13.674328,24.055365 0 0 0 13.674322,24.05536 13.674328,24.055365 0 0 0 13.67433,-24.05536 13.674328,24.055365 0 0 0 -13.67433,-24.05537 13.674328,24.055365 0 0 0 -13.674322,24.05537 z"
     id="path1473"
     inkscape:connector-curvature="0" />
  <path
     style="fill:none;stroke:#000000;stroke-width:10;stroke-linecap:butt;stroke-linejoin:miter;stroke-miterlimit:4;stroke-dasharray:none;stroke-opacity:1"
     d="m 644.67655,391.4643 c 0.8525,4.8088 5.32088,21.23183 6.094,25.48401"
     id="path1511"
     inkscape:connector-curvature="0" />
  <path
     style="fill:none;stroke:#000000;stroke-width:10;stroke-linecap:butt;stroke-linejoin:miter;stroke-miterlimit:4;stroke-dasharray:none;stroke-opacity:1"
     d="m 640.79855,421.38031 c -0.37828,-10.97028 0.4644,-22.41463 -3.324,-33.24001 -4.80007,11.5709 -5.9239,23.314 -7.202,35.45601"
     id="path1513"
     inkscape:connector-curvature="0" />
</svg>
