<?xml version="1.0" encoding="UTF-8" standalone="no"?>
<!-- Created with Inkscape (http://www.inkscape.org/) -->

<svg
   xmlns:dc="http://purl.org/dc/elements/1.1/"
   xmlns:cc="http://creativecommons.org/ns#"
   xmlns:rdf="http://www.w3.org/1999/02/22-rdf-syntax-ns#"
   xmlns:svg="http://www.w3.org/2000/svg"
   xmlns="http://www.w3.org/2000/svg"
   xmlns:sodipodi="http://sodipodi.sourceforge.net/DTD/sodipodi-0.dtd"
   xmlns:inkscape="http://www.inkscape.org/namespaces/inkscape"
   version="1.1"
   id="svg10"
   width="86.714241"
   height="84.019272"
   viewBox="0 0 86.714241 84.019271"
   sodipodi:docname="hathi_front.svg"
   inkscape:version="0.92.3 (2405546, 2018-03-11)"
   inkscape:export-filename="C:\Users\mbrin\Documents\NetBeansProjects\abbozza-worlds\pkg\worlds\hathi\img\hathi_front.png"
   inkscape:export-xdpi="88.566765"
   inkscape:export-ydpi="88.566765">
  <metadata
     id="metadata16">
    <rdf:RDF>
      <cc:Work
         rdf:about="">
        <dc:format>image/svg+xml</dc:format>
        <dc:type
           rdf:resource="http://purl.org/dc/dcmitype/StillImage" />
        <dc:title />
      </cc:Work>
    </rdf:RDF>
  </metadata>
  <defs
     id="defs14" />
  <sodipodi:namedview
     pagecolor="#ffffff"
     bordercolor="#666666"
     borderopacity="1"
     objecttolerance="10"
     gridtolerance="10"
     guidetolerance="10"
     inkscape:pageopacity="0"
     inkscape:pageshadow="2"
     inkscape:window-width="1536"
     inkscape:window-height="801"
     id="namedview12"
     showgrid="false"
     showguides="true"
     inkscape:zoom="2.0471191"
     inkscape:cx="-30.760908"
     inkscape:cy="38.560698"
     inkscape:window-x="-8"
     inkscape:window-y="-8"
     inkscape:window-maximized="1"
     inkscape:current-layer="svg10" />
  <path
     style="fill:none;stroke:#000000;stroke-width:1px;stroke-linecap:butt;stroke-linejoin:miter;stroke-opacity:1"
     d="m 72.971944,39.442073 c -0.368812,14.502539 -2.699107,28.460222 -8.914967,41.338581 -6.609253,4.30814 -13.67252,2.714095 -20.760883,0.793799 l 0.06106,-6.411449"
     id="path20"
     inkscape:connector-curvature="0"
     sodipodi:nodetypes="cccc" />
  <path
     style="fill:none;stroke:#000000;stroke-width:1px;stroke-linecap:butt;stroke-linejoin:miter;stroke-opacity:1"
     d="M 66.804741,44.021679 C 112.9284,9.2248163 64.108318,-9.0969398 50.989833,5.6140463"
     id="path22"
     inkscape:connector-curvature="0"
     sodipodi:nodetypes="cc" />
  <path
     style="fill:none;stroke:#000000;stroke-width:0.99250233;stroke-opacity:1"
     d="M 53.767195,16.744681 A 5.1784649,9.5393372 0 0 1 48.58873,26.284019 5.1784649,9.5393372 0 0 1 43.410265,16.744681 5.1784649,9.5393372 0 0 1 48.58873,7.2053443 5.1784649,9.5393372 0 0 1 53.767195,16.744681 Z"
     id="path29"
     inkscape:connector-curvature="0" />
  <path
     style="fill:#000000;fill-opacity:1;stroke:#000000;stroke-width:0.96494168;stroke-opacity:1"
     d="m 52.330271,21.893529 a 3.7631292,4.1625156 0 0 1 -3.763129,4.162516 3.7631292,4.1625156 0 0 1 -3.763129,-4.162516 3.7631292,4.1625156 0 0 1 3.763129,-4.162516 3.7631292,4.1625156 0 0 1 3.763129,4.162516 z"
     id="path4539"
     inkscape:connector-curvature="0" />
  <path
     style="fill:none;stroke:#000000;stroke-width:1px;stroke-linecap:butt;stroke-linejoin:miter;stroke-opacity:1"
     d="m 49.160825,26.383932 c -0.407274,0.45996 -0.686017,1.078747 -0.993069,1.468012 -0.145473,0.350949 -0.43035,0.607898 -0.47497,1.079432 -0.179452,0.301739 -0.268053,0.790173 -0.4318,1.165783 -0.101004,0.732477 -0.305968,1.350133 -0.47498,2.02933 -0.0023,0.507091 -0.246059,0.94353 -0.30226,1.295318 -0.129126,0.405026 -0.264332,0.949209 -0.30226,1.468039 -0.244903,0.827627 -0.323165,1.662728 -0.34544,2.590647 -0.08598,0.728214 -0.172316,1.456282 -0.2159,2.202058 -0.209517,1.282906 -0.181428,2.674621 -0.2159,4.015453 -0.08423,1.082446 -0.07348,2.19247 -0.12954,3.281455 0.07672,1.237852 0.03086,2.65091 0.04318,3.972293 -0.132268,1.436114 0.03348,2.905789 0,4.360878 0.103508,1.209096 0.0475,2.455852 0.12954,3.670017 0.06724,1.286342 0.08585,2.559107 0.12954,3.842749 0.09403,1.112906 0.126923,2.236502 0.25908,3.367807 0.10793,0.923918 0.03163,1.962904 0.38862,2.806534 1.020608,2.411847 4.165645,2.923885 3.622612,4.734277 -0.751045,2.503872 -4.057649,1.341803 -6.94719,1.310602 0.149599,0.232989 0.188175,-0.01415 0.456998,0.11866"
     id="path4545"
     inkscape:connector-curvature="0"
     sodipodi:nodetypes="cccccccccccccccssscc" />
  <path
     style="fill:none;stroke:#000000;stroke-width:1px;stroke-linecap:butt;stroke-linejoin:miter;stroke-opacity:1"
     d="m 63.452394,81.002766 c -0.130963,-1.309629 -0.129531,-0.861385 -0.129531,-1.338485 0,-0.01439 0.0064,-0.0303 0,-0.04318 -0.05189,-0.103784 -0.136014,-0.192158 -0.172708,-0.302238 -0.0046,-0.01365 0,-0.02878 0,-0.04318 -0.01439,-0.01439 -0.03407,-0.02497 -0.04318,-0.04318 -0.0064,-0.01287 0.0064,-0.0303 0,-0.04318 -0.0091,-0.0182 -0.03407,-0.02497 -0.04318,-0.04318 -0.01287,-0.02575 0.01287,-0.06061 0,-0.08635 -0.08985,-0.179692 0.003,0.04616 -0.08635,-0.04318 -0.01018,-0.01018 0.0064,-0.0303 0,-0.04318 -0.02124,-0.04249 -0.151464,-0.13022 -0.172707,-0.172708 -0.01287,-0.02575 0.02035,-0.066 0,-0.08635 -0.01018,-0.01018 -0.0303,0.0064 -0.04318,0 -0.01821,-0.0091 -0.02878,-0.02878 -0.04318,-0.04318 -0.01439,-0.01439 -0.03408,-0.02497 -0.04318,-0.04318 -0.0064,-0.01287 0.01018,-0.033 0,-0.04318 -0.03669,-0.03669 -0.08802,-0.05522 -0.129531,-0.08635 -0.01628,-0.01221 -0.02497,-0.03407 -0.04318,-0.04318 -0.01287,-0.0064 -0.033,0.01018 -0.04318,0 -0.01018,-0.01018 0,-0.02878 0,-0.04318 -0.01439,-0.01439 -0.02624,-0.03189 -0.04318,-0.04318 -0.02678,-0.01785 -0.05958,-0.02533 -0.08635,-0.04318 -0.01694,-0.01129 -0.02497,-0.03407 -0.04318,-0.04318 -0.01287,-0.0064 -0.0303,0.0064 -0.04318,0 -0.03641,-0.0182 -0.04994,-0.06815 -0.08635,-0.08635 -0.01287,-0.0064 -0.0303,0.0064 -0.04318,0 -0.04249,-0.02124 -0.130221,-0.151464 -0.172708,-0.172708 -0.01287,-0.0064 -0.0303,0.0064 -0.04318,0 -0.03641,-0.0182 -0.04994,-0.06815 -0.08635,-0.08635 -0.01287,-0.0064 -0.0303,0.0064 -0.04318,0 -0.0182,-0.0091 -0.02497,-0.03407 -0.04318,-0.04318 -0.02575,-0.01287 -0.06061,0.01287 -0.08635,0 -0.0182,-0.0091 -0.02497,-0.03407 -0.04318,-0.04318 -0.01314,-0.0066 -0.110086,0 -0.129531,0 -0.08635,0 -0.172707,0 -0.259061,0 -0.101258,0 0.02035,0.01018 -0.08635,-0.04318 -0.01287,-0.0064 -0.02878,0 -0.04318,0 -0.01439,0 -0.02878,0 -0.04318,0 -0.08635,0 -0.172708,0 -0.259062,0 -0.01439,0 -0.02878,0 -0.04318,0 -0.01439,0 -0.033,-0.01018 -0.04318,0 -0.01018,0.01018 0.01018,0.033 0,0.04318 -0.08056,0.08057 -0.126487,0.02007 -0.172707,0.04318 -0.0182,0.0091 -0.02878,0.02879 -0.04318,0.04318 -0.05757,0 -0.116257,-0.01129 -0.172708,0 -0.01996,0.004 -0.02497,0.03408 -0.04318,0.04318 -0.04071,0.02035 -0.08882,0.02282 -0.129531,0.04318 -0.0182,0.0091 -0.02497,0.03408 -0.04318,0.04318 -0.01287,0.0064 -0.0303,-0.0064 -0.04318,0 -0.0182,0.0091 -0.02497,0.03408 -0.04318,0.04318 -0.02575,0.01287 -0.06061,-0.01287 -0.08635,0 -0.0182,0.0091 -0.02497,0.03408 -0.04318,0.04318 -0.01287,0.0064 -0.0303,-0.0064 -0.04318,0 -0.0182,0.0091 -0.02624,0.03189 -0.04318,0.04318 -0.02678,0.01785 -0.05958,0.02533 -0.08635,0.04318 -0.01694,0.01129 -0.02497,0.03407 -0.04318,0.04318 -0.01287,0.0064 -0.0303,-0.0064 -0.04318,0 -0.03641,0.01821 -0.04994,0.06815 -0.08635,0.08635 -0.01287,0.0064 -0.0303,-0.0064 -0.04318,0 -0.01821,0.0091 -0.02878,0.02878 -0.04318,0.04318 -0.02878,0.02878 -0.05248,0.06377 -0.08635,0.08635 -0.01198,0.008 -0.033,-0.01018 -0.04318,0 -0.08934,0.08933 0.136515,-0.0035 -0.04318,0.08635 -0.05956,0.02978 -0.03862,-0.05229 -0.08635,0.04318 -0.0064,0.01287 0.0064,0.0303 0,0.04318 -0.04773,0.09547 -0.0268,0.0134 -0.08635,0.04318 -0.179692,0.08985 0.04616,-0.003 -0.04318,0.08635 -0.01018,0.01018 -0.03674,-0.01287 -0.04318,0 -0.01287,0.02575 0.01287,0.06061 0,0.08635 -0.0064,0.01287 -0.033,-0.01018 -0.04318,0 -0.02035,0.02035 0.01287,0.06061 0,0.08635 -0.0091,0.01821 -0.03408,0.02497 -0.04318,0.04318 -0.0064,0.01287 0.0064,0.0303 0,0.04318 -0.0988,0.197604 0.01789,-0.183218 -0.08635,0.129531 -0.0046,0.01365 0,0.02878 0,0.04318 -0.01439,0.01439 -0.03408,0.02497 -0.04318,0.04318 -0.0064,0.01287 0.0064,0.0303 0,0.04318 -0.0091,0.01821 -0.03408,0.02497 -0.04318,0.04318 -0.0064,0.01287 0.0064,0.0303 0,0.04318 -0.01821,0.03641 -0.06815,0.04994 -0.08635,0.08635 -0.0064,0.01287 0.0064,0.0303 0,0.04318 -0.01821,0.03641 -0.06815,0.04994 -0.08635,0.08635 -0.01287,0.02575 0.02035,0.066 0,0.08635 -0.01018,0.01018 -0.03519,-0.01197 -0.04318,0 -0.131649,0.03057 -0.01664,0.119632 -0.04318,0.172708 -0.01821,0.03641 -0.07348,0.04774 -0.08635,0.08635 -0.0091,0.02731 0.01287,0.06061 0,0.08635 -0.0064,0.01287 -0.03674,-0.01287 -0.04318,0 -0.04318,0.08635 0.02159,0.06476 0,0.12953 -0.01018,0.03053 -0.033,0.05582 -0.04318,0.08635 -0.0046,0.01365 0.0064,0.0303 0,0.04318 -0.143199,0.1432 0.02035,-0.04071 -0.04318,0.08635 -0.0091,0.0182 -0.03674,0.02387 -0.04318,0.04318 -0.0091,0.02731 0.0091,0.05905 0,0.08635 -0.0064,0.01931 -0.03408,0.02497 -0.04318,0.04318 -0.01287,0.02575 0.01287,0.06061 0,0.08635 -0.0988,0.197604 0.01789,-0.183218 -0.08635,0.129531 -0.0081,0.02436 0,0.101159 0,0.12953 0,0.08635 0,0.172708 0,0.259062 0,0.01944 0.0066,0.116391 0,0.129531 -0.0091,0.0182 -0.03408,0.02497 -0.04318,0.04318 -0.01013,0.02027 0.006,0.136953 0,0.172708 -0.01206,0.07239 -0.04318,0.142498 -0.04318,0.215884 0,0.04551 0.04318,0.08402 0.04318,0.129531 0,0.03218 -0.033,0.05582 -0.04318,0.08635 -0.0046,0.01365 0,0.02878 0,0.04318 0,0.115139 0,0.230277 0,0.345416 0,0.04318 0.0085,0.08719 0,0.12953 -0.0063,0.03156 -0.033,0.05582 -0.04318,0.08635 -0.0046,0.01365 0.0064,0.0303 0,0.04318 -0.0091,0.01821 -0.03408,0.02497 -0.04318,0.04318 -0.0064,0.01287 -0.0024,0.02898 0,0.04318 0.01207,0.07239 0.03111,0.143497 0.04318,0.215885 0.0047,0.02839 0,0.05757 0,0.08635 0,0.01439 0.01018,0.033 0,0.04318 -0.01018,0.01018 -0.033,-0.01018 -0.04318,0 -0.01018,0.01018 0.0064,0.0303 0,0.04318 -0.0091,0.01821 -0.02878,0.02878 -0.04318,0.04318 -0.01439,0.01439 -0.02497,0.03407 -0.04318,0.04318 -0.01287,0.0064 -0.02952,-0.0046 -0.04318,0 -0.03053,0.01018 -0.05582,0.033 -0.08635,0.04318 -0.01365,0.0046 -0.033,-0.01018 -0.04318,0 -0.01018,0.01018 0,0.02878 0,0.04318"
     id="path4554"
     inkscape:connector-curvature="0" />
  <path
     style="fill:none;stroke:#000000;stroke-width:1px;stroke-linecap:butt;stroke-linejoin:miter;stroke-opacity:1"
     d="m 57.537152,82.557136 c -0.08635,-0.431769 -0.172707,-0.863539 -0.259061,-1.295308 -0.01439,-0.07196 -0.01997,-0.146264 -0.04318,-0.215885 -0.01287,-0.03862 -0.0707,-0.04878 -0.08635,-0.08635 -0.05757,-0.158315 -0.115139,-0.316631 -0.172708,-0.474946 -0.01439,-0.01439 -0.03407,-0.02497 -0.04318,-0.04318 -0.0064,-0.01287 0,-0.02878 0,-0.04318 -0.01439,-0.02878 -0.02533,-0.05958 -0.04318,-0.08635 -0.01129,-0.01694 -0.03407,-0.02497 -0.04318,-0.04318 -0.0064,-0.01287 0.01018,-0.033 0,-0.04318 -0.01018,-0.01018 -0.033,0.01018 -0.04318,0 -0.105782,-0.211565 0.01412,-0.03611 -0.08635,-0.08635 -0.179692,-0.08985 0.04616,0.003 -0.04318,-0.08635 -0.02276,-0.02276 -0.05958,-0.02533 -0.08635,-0.04318 -0.01694,-0.01129 -0.02497,-0.03408 -0.04318,-0.04318 -0.01287,-0.0064 -0.033,0.01018 -0.04318,0 -0.01018,-0.01018 0.01018,-0.033 0,-0.04318 -0.02276,-0.02276 -0.05958,-0.02533 -0.08635,-0.04318 -0.0393,-0.0262 -0.09126,-0.110396 -0.129531,-0.129531 -0.01287,-0.0064 -0.033,0.01018 -0.04318,0 -0.01018,-0.01018 0.01018,-0.033 0,-0.04318 -0.01018,-0.01018 -0.02952,0.0046 -0.04318,0 -0.03053,-0.01018 -0.0636,-0.02042 -0.08635,-0.04318 -0.02276,-0.02276 -0.02042,-0.0636 -0.04318,-0.08635 -0.01018,-0.01018 -0.0303,0.0064 -0.04318,0 -0.1432,-0.1432 0.04071,0.02035 -0.08635,-0.04318 -0.01821,-0.0091 -0.02497,-0.03407 -0.04318,-0.04318 -0.02575,-0.01287 -0.06061,0.01287 -0.08635,0 -0.1432,-0.1432 0.04071,0.02035 -0.08635,-0.04318 -0.0182,-0.0091 -0.02497,-0.03407 -0.04318,-0.04318 -0.01287,-0.0064 -0.02952,0.0046 -0.04318,0 -0.03053,-0.01018 -0.05582,-0.033 -0.08635,-0.04318 -0.03886,-0.01295 -0.09067,0.01295 -0.129531,0 -0.01931,-0.0064 -0.02497,-0.03407 -0.04318,-0.04318 -0.02575,-0.01287 -0.06061,0.01287 -0.08635,0 -0.0182,-0.0091 -0.02387,-0.03674 -0.04318,-0.04318 -0.02224,-0.0074 -0.256565,0 -0.302238,0 -0.01439,0 -0.02878,0 -0.04318,0 -0.01439,0 -0.0303,0.0064 -0.04318,0 -0.01821,-0.0091 -0.02497,-0.03408 -0.04318,-0.04318 -0.01314,-0.0066 -0.110086,0 -0.129531,0 -0.03684,0 -0.286196,-0.008 -0.302239,0 -0.01821,0.0091 -0.02497,0.03407 -0.04318,0.04318 -0.02575,0.01287 -0.06061,-0.01287 -0.08635,0 -0.01821,0.0091 -0.02497,0.03407 -0.04318,0.04318 -0.03454,0.01727 -0.09499,-0.01727 -0.129531,0 -0.01821,0.0091 -0.02497,0.03407 -0.04318,0.04318 -0.02575,0.01287 -0.06061,-0.01287 -0.08635,0 -0.01821,0.0091 -0.02497,0.03408 -0.04318,0.04318 -0.03454,0.01727 -0.09499,-0.01727 -0.129531,0 -0.01821,0.0091 -0.02497,0.03408 -0.04318,0.04318 -0.01287,0.0064 -0.033,-0.01018 -0.04318,0 -0.01018,0.01018 0.01018,0.033 0,0.04318 -0.01018,0.01018 -0.033,-0.01018 -0.04318,0 -0.01018,0.01018 0.01018,0.033 0,0.04318 -0.01018,0.01018 -0.033,-0.01018 -0.04318,0 -0.01018,0.01018 0.01018,0.033 0,0.04318 -0.01018,0.01018 -0.02878,0 -0.04318,0 -0.02879,0 -0.06061,-0.01287 -0.08635,0 -0.01287,0.0064 0.01018,0.033 0,0.04318 -0.02035,0.02035 -0.06061,-0.01287 -0.08635,0 -0.01821,0.0091 -0.02497,0.03408 -0.04318,0.04318 -0.01287,0.0064 -0.02952,-0.0046 -0.04318,0 -0.312749,0.10425 0.06807,-0.01245 -0.129531,0.08635 -0.01287,0.0064 -0.0303,-0.0064 -0.04318,0 -0.05181,0.02591 -0.07772,0.103625 -0.129531,0.129531 -0.01287,0.0064 -0.033,-0.01018 -0.04318,0 -0.01018,0.01018 0.01018,0.033 0,0.04318 -0.01018,0.01018 -0.033,-0.01018 -0.04318,0 -0.02276,0.02276 -0.02533,0.05958 -0.04318,0.08635 -0.02258,0.03387 -0.07348,0.04774 -0.08635,0.08635 -0.0091,0.02731 0.0091,0.05905 0,0.08635 -0.0064,0.01931 -0.03408,0.02497 -0.04318,0.04318 -0.0064,0.01287 0.0064,0.0303 0,0.04318 -0.0091,0.0182 -0.03408,0.02497 -0.04318,0.04318 -0.01287,0.02575 0.01287,0.06061 0,0.08635 -0.0091,0.0182 -0.03408,0.02497 -0.04318,0.04318 -0.0064,0.01287 0.0064,0.0303 0,0.04318 -0.0091,0.0182 -0.03408,0.02497 -0.04318,0.04318 -0.0064,0.01287 0.0064,0.0303 0,0.04318 -0.0091,0.0182 -0.03408,0.02497 -0.04318,0.04318 -0.0064,0.01287 0.0064,0.0303 0,0.04318 -0.0091,0.0182 -0.03408,0.02497 -0.04318,0.04318 -0.0064,0.01287 0.0064,0.0303 0,0.04318 -0.0091,0.0182 -0.03408,0.02497 -0.04318,0.04318 -0.0064,0.01287 0.0064,0.0303 0,0.04318 -0.05335,0.106707 -0.04318,-0.0149 -0.04318,0.08635 0,0.01945 0.0066,0.116391 0,0.129531 -0.0091,0.0182 -0.03407,0.02497 -0.04318,0.04318 -0.01727,0.03454 0.01727,0.09499 0,0.129531 -0.0091,0.0182 -0.03407,0.02497 -0.04318,0.04318 -0.02286,0.04571 0.02286,0.04064 0,0.08635 -0.0091,0.0182 -0.03407,0.02497 -0.04318,0.04318 -0.0064,0.01287 0.01018,0.033 0,0.04318 -0.01018,0.01018 -0.033,-0.01018 -0.04318,0 -0.02035,0.02035 0.01287,0.06061 0,0.08635 -0.0091,0.0182 -0.03407,0.02497 -0.04318,0.04318 -0.01287,0.02575 0.02035,0.066 0,0.08635 -0.01018,0.01018 -0.033,-0.01018 -0.04318,0 -2.29e-4,2.29e-4 3.61e-4,0.128087 0,0.12953 -0.0078,0.03122 -0.033,0.05582 -0.04318,0.08635 -0.0091,0.02731 0.01287,0.06061 0,0.08635 -0.0091,0.01821 -0.03407,0.02497 -0.04318,0.04318 -0.02286,0.04571 0.02286,0.04064 0,0.08635 -0.0091,0.01821 -0.03407,0.02497 -0.04318,0.04318 -0.01727,0.03454 0.01727,0.09499 0,0.129531 -0.0091,0.01821 -0.03407,0.02497 -0.04318,0.04318 -0.0057,0.01135 0,0.150129 0,0.172707 0,0.01439 0,0.02878 0,0.04318 0,0.01439 0.0064,0.0303 0,0.04318 -0.0091,0.01821 -0.03407,0.02497 -0.04318,0.04318 -0.0064,0.01287 0.0046,0.02952 0,0.04318 -0.01018,0.03053 -0.033,0.05582 -0.04318,0.08635 -0.0046,0.01365 0.0064,0.0303 0,0.04318 -0.0091,0.01821 -0.04318,0.02282 -0.04318,0.04318 0,0.01439 0.02878,0 0.04318,0 0.01439,0 0.02878,0 0.04318,0 -0.01616,-0.07544 -0.09413,-0.93133 -0.302131,-1.295337 -0.04164,-0.07286 -0.092,-0.140824 -0.129531,-0.215885 -0.0064,-0.01287 0.0064,-0.0303 0,-0.04318 -0.0182,-0.03641 -0.06815,-0.04994 -0.08635,-0.08635 -0.0064,-0.01287 0.0064,-0.0303 0,-0.04318 -0.0091,-0.01821 -0.02878,-0.02878 -0.04318,-0.04318 -0.02878,-0.02878 -0.06092,-0.05457 -0.08635,-0.08635 -0.03242,-0.04052 -0.04966,-0.09284 -0.08635,-0.12953 -0.03669,-0.03669 -0.08802,-0.05522 -0.129531,-0.08635 -0.06427,-0.0482 -0.105888,-0.128161 -0.172708,-0.172708 -0.01197,-0.008 -0.033,0.01018 -0.04318,0 -0.01018,-0.01018 0.0064,-0.0303 0,-0.04318 -0.02591,-0.05181 -0.103625,-0.07772 -0.129531,-0.129531 -0.0064,-0.01287 0.01018,-0.033 0,-0.04318 -0.01018,-0.01018 -0.033,0.01018 -0.04318,0 -0.01018,-0.01018 0,-0.02878 0,-0.04318 -0.01439,0 -0.03166,0.0086 -0.04318,0 -0.04885,-0.03664 -0.08635,-0.08635 -0.129531,-0.129531 -0.01439,-0.01439 -0.03407,-0.02497 -0.04318,-0.04318 -0.0064,-0.01287 0.01018,-0.033 0,-0.04318 -0.01018,-0.01018 -0.0303,0.0064 -0.04318,0 -0.179693,-0.08985 0.04616,0.003 -0.04318,-0.08635 -0.01018,-0.01018 -0.033,0.01018 -0.04318,0 -0.01018,-0.01018 0.01018,-0.033 0,-0.04318 -0.02276,-0.02276 -0.0636,-0.02042 -0.08635,-0.04318 -0.01018,-0.01018 0.01018,-0.033 0,-0.04318 -0.01018,-0.01018 -0.033,0.01018 -0.04318,0 -0.01018,-0.01018 0.01018,-0.033 0,-0.04318 -0.08933,-0.08934 0.0035,0.136515 -0.08635,-0.04318 -0.0064,-0.01287 0.0064,-0.0303 0,-0.04318 -0.02591,-0.05181 -0.103625,-0.07772 -0.129531,-0.129531 -0.0064,-0.01287 0.01018,-0.033 0,-0.04318 -0.02035,-0.02035 -0.06061,0.01287 -0.08635,0 -0.01821,-0.0091 -0.02497,-0.03407 -0.04318,-0.04318 -0.02575,-0.01287 -0.066,0.02035 -0.08635,0 -0.01018,-0.01018 0.01018,-0.033 0,-0.04318 -0.0088,-0.0088 -0.112411,0.0086 -0.12953,0 -0.01821,-0.0091 -0.02497,-0.03407 -0.04318,-0.04318 -0.02289,-0.01145 -0.186512,0.0098 -0.215885,0 -0.01931,-0.0064 -0.02497,-0.03407 -0.04318,-0.04318 -0.02575,-0.01287 -0.06061,0.01287 -0.08635,0 -0.01821,-0.0091 -0.02497,-0.03407 -0.04318,-0.04318 -0.02575,-0.01287 -0.06061,0.01287 -0.08635,0 -0.01821,-0.0091 -0.02497,-0.03407 -0.04318,-0.04318 -0.02714,-0.01357 -0.14557,0.01357 -0.172707,0 -0.01821,-0.0091 -0.02497,-0.03407 -0.04318,-0.04318 -0.02283,-0.01142 -0.151673,0.0053 -0.172708,0 -0.03122,-0.0078 -0.05582,-0.033 -0.08635,-0.04318 -0.0297,-0.0099 -0.104056,0.01274 -0.129531,0 -0.01821,-0.0091 -0.02387,-0.03674 -0.04318,-0.04318 -0.03375,-0.01125 -0.235301,0.01188 -0.259062,0 -0.01821,-0.0091 -0.02497,-0.03408 -0.04318,-0.04318 -0.01287,-0.0064 -0.02878,0 -0.04318,0 -0.01439,0 -0.02878,0 -0.04318,0 -0.08635,0 -0.172708,0 -0.259062,0 -0.02837,0 -0.10517,0.0081 -0.129531,0 -0.03053,-0.01018 -0.05582,-0.033 -0.08635,-0.04318 -0.02731,-0.0091 -0.05757,0 -0.08635,0 -0.100746,0 -0.201492,0 -0.302238,0 -0.01047,0 -0.128143,-0.0014 -0.129531,0 -0.01018,0.01018 0.01287,0.03674 0,0.04318 -0.03406,0.03862 -0.09091,-0.01931 -0.129531,0 -0.01821,0.0091 -0.02497,0.03407 -0.04318,0.04318 -0.01287,0.0064 -0.02878,0 -0.04318,0 -0.01439,0.01439 -0.02497,0.03407 -0.04318,0.04318 -0.02575,0.01287 -0.06061,-0.01287 -0.08635,0 -0.01821,0.0091 -0.02497,0.03407 -0.04318,0.04318 -0.01287,0.0064 -0.0303,-0.0064 -0.04318,0 -0.197603,0.0988 0.183218,-0.0179 -0.12953,0.08635 -0.02731,0.0091 -0.06061,-0.01287 -0.08635,0 -0.01821,0.0091 -0.02497,0.03408 -0.04318,0.04318 -0.01287,0.0064 -0.0303,-0.0064 -0.04318,0 -0.01821,0.0091 -0.02497,0.03408 -0.04318,0.04318 -0.01287,0.0064 -0.033,-0.01018 -0.04318,0 -0.01018,0.01018 0.01018,0.033 0,0.04318 -0.01018,0.01018 -0.0303,-0.0064 -0.04318,0 -0.0182,0.0091 -0.02497,0.03408 -0.04318,0.04318 -0.01287,0.0064 -0.0303,-0.0064 -0.04318,0 -0.0182,0.0091 -0.02497,0.03408 -0.04318,0.04318 -0.03454,0.01727 -0.09499,-0.01727 -0.129531,0 -0.0182,0.0091 -0.02497,0.03408 -0.04318,0.04318 -0.01287,0.0064 -0.033,-0.01018 -0.04318,0 -0.02276,0.02276 -0.02878,0.05757 -0.04318,0.08635 -0.04318,0.04318 -0.08262,0.09044 -0.129531,0.129531 -0.03987,0.03322 -0.09284,0.04966 -0.129531,0.08635 -0.03669,0.03669 -0.05522,0.08802 -0.08635,0.129531 -0.01221,0.01628 -0.03407,0.02497 -0.04318,0.04318 -0.0064,0.01287 0.01018,0.033 0,0.04318 -0.01018,0.01018 -0.033,-0.01018 -0.04318,0 -0.01018,0.01018 0.0064,0.0303 0,0.04318 -0.01821,0.03641 -0.06377,0.05248 -0.08635,0.08635 -0.01785,0.02678 -0.02533,0.05958 -0.04318,0.08635 -0.02258,0.03387 -0.06815,0.04994 -0.08635,0.08635 -0.0064,0.01287 0.0064,0.0303 0,0.04318 -0.08985,0.179692 0.003,-0.04616 -0.08635,0.04318 -0.01018,0.01018 0.0046,0.02952 0,0.04318 -0.01018,0.03053 -0.02533,0.05958 -0.04318,0.08635 -0.02258,0.03387 -0.06815,0.04994 -0.08635,0.08635 -0.0064,0.01287 0,0.02878 0,0.04318 -0.01439,0.02878 -0.02533,0.05958 -0.04318,0.08635 -0.02258,0.03387 -0.06815,0.04994 -0.08635,0.08635 -0.0064,0.01287 0.01018,0.033 0,0.04318 -0.01018,0.01018 -0.033,-0.01018 -0.04318,0 -0.01018,0.01018 0.0064,0.0303 0,0.04318 -0.01821,0.03641 -0.06815,0.04994 -0.08635,0.08635 -0.0064,0.01287 0.0064,0.0303 0,0.04318 -0.0091,0.0182 -0.03674,0.02387 -0.04318,0.04318 -0.0091,0.02731 0.01287,0.06061 0,0.08635 -0.0064,0.01287 -0.033,-0.01018 -0.04318,0 -0.02035,0.02035 0.01287,0.06061 0,0.08635 -0.09201,0.184025 0.0057,-0.09767 -0.08635,0.08635 -0.01287,0.02575 0.02035,0.066 0,0.08635 -0.01018,0.01018 -0.033,-0.01018 -0.04318,0 -0.02035,0.02035 0.02035,0.066 0,0.08635 -0.01018,0.01018 -0.033,-0.01018 -0.04318,0 -0.01018,0.01018 0.0064,0.03031 0,0.04318 -0.0091,0.01821 -0.03407,0.02497 -0.04318,0.04318 -0.01171,0.02342 0.01181,0.160894 0,0.172708 -0.01018,0.01018 -0.04318,0.01439 -0.04318,0 0,-0.01807 0.05257,0.01126 0.08635,0 0.14884,-0.04961 0.03198,-0.04318 0.129531,-0.04318"
     id="path4556"
     inkscape:connector-curvature="0" />
  <path
     style="fill:none;stroke:#000000;stroke-width:1px;stroke-linecap:butt;stroke-linejoin:miter;stroke-opacity:1"
     d="m 13.742296,39.441801 c 0.368812,14.502539 2.699107,28.460222 8.914967,41.338581 6.609253,4.30814 13.67252,2.714095 20.760883,0.793799 l -0.06106,-6.411449"
     id="path20-0"
     inkscape:connector-curvature="0"
     sodipodi:nodetypes="cccc" />
  <path
     style="fill:none;stroke:#000000;stroke-width:1px;stroke-linecap:butt;stroke-linejoin:miter;stroke-opacity:1"
     d="M 19.909499,44.021407 C -26.214158,9.2245453 22.605922,-9.0972111 35.724407,5.6137753"
     id="path22-3"
     inkscape:connector-curvature="0"
     sodipodi:nodetypes="cc" />
  <path
     style="fill:none;stroke:#000000;stroke-width:0.99250233;stroke-opacity:1"
     d="M 32.94705,16.744409 A 5.1784649,9.5393372 0 0 0 38.125515,26.283746 5.1784649,9.5393372 0 0 0 43.30398,16.744409 5.1784649,9.5393372 0 0 0 38.125515,7.2050713 5.1784649,9.5393372 0 0 0 32.94705,16.744409 Z"
     id="path29-0"
     inkscape:connector-curvature="0" />
  <path
     style="fill:#000000;fill-opacity:1;stroke:#000000;stroke-width:0.96494168;stroke-opacity:1"
     d="m 34.383969,21.893258 a 3.7631292,4.1625156 0 0 0 3.763129,4.162516 3.7631292,4.1625156 0 0 0 3.76313,-4.162516 3.7631292,4.1625156 0 0 0 -3.76313,-4.162516 3.7631292,4.1625156 0 0 0 -3.763129,4.162516 z"
     id="path4539-0"
     inkscape:connector-curvature="0" />
  <path
     style="fill:none;stroke:#000000;stroke-width:1px;stroke-linecap:butt;stroke-linejoin:miter;stroke-opacity:1"
     d="m 37.553415,26.38366 c 0.407274,0.45996 0.686017,1.078747 0.993069,1.468012 0.145473,0.350949 0.43035,0.607898 0.47497,1.079432 0.179452,0.301739 0.268053,0.790173 0.4318,1.165783 0.101004,0.732477 0.305968,1.350133 0.47498,2.02933 0.0023,0.507091 0.246059,0.94353 0.30226,1.295318 0.129126,0.405026 0.264332,0.949209 0.30226,1.468039 0.244903,0.827627 0.323165,1.662728 0.34544,2.590647 0.08598,0.728214 0.172316,1.456282 0.2159,2.202058 0.209517,1.282906 0.181428,2.674621 0.2159,4.015453 0.08423,1.082446 0.07348,2.19247 0.12954,3.281455 -0.07672,1.237852 -0.03086,2.65091 -0.04318,3.972293 0.132268,1.436114 -0.03348,2.905789 0,4.360878 -0.103508,1.209096 -0.0475,2.455852 -0.12954,3.670017 -0.06724,1.286342 -0.08585,2.559107 -0.12954,3.842749 -0.09403,1.112906 -0.126923,2.236502 -0.25908,3.367807 -0.10793,0.923918 -0.03163,1.962904 -0.38862,2.806534 -1.020608,2.411847 -4.165645,2.923885 -3.622612,4.734277 0.751045,2.503872 4.057649,1.341803 6.94719,1.310602 -0.149599,0.232989 -0.188175,-0.01415 -0.456998,0.11866"
     id="path4545-5"
     inkscape:connector-curvature="0"
     sodipodi:nodetypes="cccccccccccccccssscc" />
  <path
     style="fill:none;stroke:#000000;stroke-width:1px;stroke-linecap:butt;stroke-linejoin:miter;stroke-opacity:1"
     d="m 23.261846,81.002494 c 0.130963,-1.309629 0.129531,-0.861385 0.129531,-1.338485 0,-0.01439 -0.0064,-0.0303 0,-0.04318 0.05189,-0.103784 0.136014,-0.192158 0.172708,-0.302238 0.0046,-0.01365 0,-0.02878 0,-0.04318 0.01439,-0.01439 0.03407,-0.02497 0.04318,-0.04318 0.0064,-0.01287 -0.0064,-0.0303 0,-0.04318 0.0091,-0.0182 0.03407,-0.02497 0.04318,-0.04318 0.01287,-0.02575 -0.01287,-0.06061 0,-0.08635 0.08985,-0.179692 -0.003,0.04616 0.08635,-0.04318 0.01018,-0.01018 -0.0064,-0.0303 0,-0.04318 0.02124,-0.04249 0.151464,-0.13022 0.172707,-0.172708 0.01287,-0.02575 -0.02035,-0.066 0,-0.08635 0.01018,-0.01018 0.0303,0.0064 0.04318,0 0.01821,-0.0091 0.02878,-0.02878 0.04318,-0.04318 0.01439,-0.01439 0.03408,-0.02497 0.04318,-0.04318 0.0064,-0.01287 -0.01018,-0.033 0,-0.04318 0.03669,-0.03669 0.08802,-0.05522 0.129531,-0.08635 0.01628,-0.01221 0.02497,-0.03407 0.04318,-0.04318 0.01287,-0.0064 0.033,0.01018 0.04318,0 0.01018,-0.01018 0,-0.02878 0,-0.04318 0.01439,-0.01439 0.02624,-0.03189 0.04318,-0.04318 0.02678,-0.01785 0.05958,-0.02533 0.08635,-0.04318 0.01694,-0.01129 0.02497,-0.03407 0.04318,-0.04318 0.01287,-0.0064 0.0303,0.0064 0.04318,0 0.03641,-0.0182 0.04994,-0.06815 0.08635,-0.08635 0.01287,-0.0064 0.0303,0.0064 0.04318,0 0.04249,-0.02124 0.130221,-0.151464 0.172708,-0.172708 0.01287,-0.0064 0.0303,0.0064 0.04318,0 0.03641,-0.0182 0.04994,-0.06815 0.08635,-0.08635 0.01287,-0.0064 0.0303,0.0064 0.04318,0 0.0182,-0.0091 0.02497,-0.03407 0.04318,-0.04318 0.02575,-0.01287 0.06061,0.01287 0.08635,0 0.0182,-0.0091 0.02497,-0.03407 0.04318,-0.04318 0.01314,-0.0066 0.110086,0 0.129531,0 0.08635,0 0.172707,0 0.259061,0 0.101258,0 -0.02035,0.01018 0.08635,-0.04318 0.01287,-0.0064 0.02878,0 0.04318,0 0.01439,0 0.02878,0 0.04318,0 0.08635,0 0.172708,0 0.259062,0 0.01439,0 0.02878,0 0.04318,0 0.01439,0 0.033,-0.01018 0.04318,0 0.01018,0.01018 -0.01018,0.033 0,0.04318 0.08056,0.08057 0.126487,0.02007 0.172707,0.04318 0.0182,0.0091 0.02878,0.02879 0.04318,0.04318 0.05757,0 0.116257,-0.01129 0.172708,0 0.01996,0.004 0.02497,0.03408 0.04318,0.04318 0.04071,0.02035 0.08882,0.02282 0.129531,0.04318 0.0182,0.0091 0.02497,0.03408 0.04318,0.04318 0.01287,0.0064 0.0303,-0.0064 0.04318,0 0.0182,0.0091 0.02497,0.03408 0.04318,0.04318 0.02575,0.01287 0.06061,-0.01287 0.08635,0 0.0182,0.0091 0.02497,0.03408 0.04318,0.04318 0.01287,0.0064 0.0303,-0.0064 0.04318,0 0.0182,0.0091 0.02624,0.03189 0.04318,0.04318 0.02678,0.01785 0.05958,0.02533 0.08635,0.04318 0.01694,0.01129 0.02497,0.03407 0.04318,0.04318 0.01287,0.0064 0.0303,-0.0064 0.04318,0 0.03641,0.01821 0.04994,0.06815 0.08635,0.08635 0.01287,0.0064 0.0303,-0.0064 0.04318,0 0.01821,0.0091 0.02878,0.02878 0.04318,0.04318 0.02878,0.02878 0.05248,0.06377 0.08635,0.08635 0.01198,0.008 0.033,-0.01018 0.04318,0 0.08934,0.08933 -0.136515,-0.0035 0.04318,0.08635 0.05956,0.02978 0.03862,-0.05229 0.08635,0.04318 0.0064,0.01287 -0.0064,0.0303 0,0.04318 0.04773,0.09547 0.0268,0.0134 0.08635,0.04318 0.179692,0.08985 -0.04616,-0.003 0.04318,0.08635 0.01018,0.01018 0.03674,-0.01287 0.04318,0 0.01287,0.02575 -0.01287,0.06061 0,0.08635 0.0064,0.01287 0.033,-0.01018 0.04318,0 0.02035,0.02035 -0.01287,0.06061 0,0.08635 0.0091,0.01821 0.03408,0.02497 0.04318,0.04318 0.0064,0.01287 -0.0064,0.0303 0,0.04318 0.0988,0.197604 -0.01789,-0.183218 0.08635,0.129531 0.0046,0.01365 0,0.02878 0,0.04318 0.01439,0.01439 0.03408,0.02497 0.04318,0.04318 0.0064,0.01287 -0.0064,0.0303 0,0.04318 0.0091,0.01821 0.03408,0.02497 0.04318,0.04318 0.0064,0.01287 -0.0064,0.0303 0,0.04318 0.01821,0.03641 0.06815,0.04994 0.08635,0.08635 0.0064,0.01287 -0.0064,0.0303 0,0.04318 0.01821,0.03641 0.06815,0.04994 0.08635,0.08635 0.01287,0.02575 -0.02035,0.066 0,0.08635 0.01018,0.01018 0.03519,-0.01197 0.04318,0 0.131649,0.03057 0.01664,0.119632 0.04318,0.172708 0.01821,0.03641 0.07348,0.04774 0.08635,0.08635 0.0091,0.02731 -0.01287,0.06061 0,0.08635 0.0064,0.01287 0.03674,-0.01287 0.04318,0 0.04318,0.08635 -0.02159,0.06476 0,0.12953 0.01018,0.03053 0.033,0.05582 0.04318,0.08635 0.0046,0.01365 -0.0064,0.0303 0,0.04318 0.143199,0.1432 -0.02035,-0.04071 0.04318,0.08635 0.0091,0.0182 0.03674,0.02387 0.04318,0.04318 0.0091,0.02731 -0.0091,0.05905 0,0.08635 0.0064,0.01931 0.03408,0.02497 0.04318,0.04318 0.01287,0.02575 -0.01287,0.06061 0,0.08635 0.0988,0.197604 -0.01789,-0.183218 0.08635,0.129531 0.0081,0.02436 0,0.101159 0,0.12953 0,0.08635 0,0.172708 0,0.259062 0,0.01944 -0.0066,0.116391 0,0.129531 0.0091,0.0182 0.03408,0.02497 0.04318,0.04318 0.01013,0.02027 -0.006,0.136953 0,0.172708 0.01206,0.07239 0.04318,0.142498 0.04318,0.215884 0,0.04551 -0.04318,0.08402 -0.04318,0.129531 0,0.03218 0.033,0.05582 0.04318,0.08635 0.0046,0.01365 0,0.02878 0,0.04318 0,0.115139 0,0.230277 0,0.345416 0,0.04318 -0.0085,0.08719 0,0.12953 0.0063,0.03156 0.033,0.05582 0.04318,0.08635 0.0046,0.01365 -0.0064,0.0303 0,0.04318 0.0091,0.01821 0.03408,0.02497 0.04318,0.04318 0.0064,0.01287 0.0024,0.02898 0,0.04318 -0.01207,0.07239 -0.03111,0.143497 -0.04318,0.215885 -0.0047,0.02839 0,0.05757 0,0.08635 0,0.01439 -0.01018,0.033 0,0.04318 0.01018,0.01018 0.033,-0.01018 0.04318,0 0.01018,0.01018 -0.0064,0.0303 0,0.04318 0.0091,0.01821 0.02878,0.02878 0.04318,0.04318 0.01439,0.01439 0.02497,0.03407 0.04318,0.04318 0.01287,0.0064 0.02952,-0.0046 0.04318,0 0.03053,0.01018 0.05582,0.033 0.08635,0.04318 0.01365,0.0046 0.033,-0.01018 0.04318,0 0.01018,0.01018 0,0.02878 0,0.04318"
     id="path4554-9"
     inkscape:connector-curvature="0" />
  <path
     style="fill:none;stroke:#000000;stroke-width:1px;stroke-linecap:butt;stroke-linejoin:miter;stroke-opacity:1"
     d="m 29.177088,82.556864 c 0.08635,-0.431769 0.172707,-0.863539 0.259061,-1.295308 0.01439,-0.07196 0.01997,-0.146264 0.04318,-0.215885 0.01287,-0.03862 0.0707,-0.04878 0.08635,-0.08635 0.05757,-0.158315 0.115139,-0.316631 0.172708,-0.474946 0.01439,-0.01439 0.03407,-0.02497 0.04318,-0.04318 0.0064,-0.01287 0,-0.02878 0,-0.04318 0.01439,-0.02878 0.02533,-0.05958 0.04318,-0.08635 0.01129,-0.01694 0.03407,-0.02497 0.04318,-0.04318 0.0064,-0.01287 -0.01018,-0.033 0,-0.04318 0.01018,-0.01018 0.033,0.01018 0.04318,0 0.105782,-0.211565 -0.01412,-0.03611 0.08635,-0.08635 0.179692,-0.08985 -0.04616,0.003 0.04318,-0.08635 0.02276,-0.02276 0.05958,-0.02533 0.08635,-0.04318 0.01694,-0.01129 0.02497,-0.03408 0.04318,-0.04318 0.01287,-0.0064 0.033,0.01018 0.04318,0 0.01018,-0.01018 -0.01018,-0.033 0,-0.04318 0.02276,-0.02276 0.05958,-0.02533 0.08635,-0.04318 0.0393,-0.0262 0.09126,-0.110396 0.129531,-0.129531 0.01287,-0.0064 0.033,0.01018 0.04318,0 0.01018,-0.01018 -0.01018,-0.033 0,-0.04318 0.01018,-0.01018 0.02952,0.0046 0.04318,0 0.03053,-0.01018 0.0636,-0.02042 0.08635,-0.04318 0.02276,-0.02276 0.02042,-0.0636 0.04318,-0.08635 0.01018,-0.01018 0.0303,0.0064 0.04318,0 0.1432,-0.1432 -0.04071,0.02035 0.08635,-0.04318 0.01821,-0.0091 0.02497,-0.03407 0.04318,-0.04318 0.02575,-0.01287 0.06061,0.01287 0.08635,0 0.1432,-0.1432 -0.04071,0.02035 0.08635,-0.04318 0.0182,-0.0091 0.02497,-0.03407 0.04318,-0.04318 0.01287,-0.0064 0.02952,0.0046 0.04318,0 0.03053,-0.01018 0.05582,-0.033 0.08635,-0.04318 0.03886,-0.01295 0.09067,0.01295 0.129531,0 0.01931,-0.0064 0.02497,-0.03407 0.04318,-0.04318 0.02575,-0.01287 0.06061,0.01287 0.08635,0 0.0182,-0.0091 0.02387,-0.03674 0.04318,-0.04318 0.02224,-0.0074 0.256565,0 0.302238,0 0.01439,0 0.02878,0 0.04318,0 0.01439,0 0.0303,0.0064 0.04318,0 0.01821,-0.0091 0.02497,-0.03408 0.04318,-0.04318 0.01314,-0.0066 0.110086,0 0.129531,0 0.03684,0 0.286196,-0.008 0.302239,0 0.01821,0.0091 0.02497,0.03407 0.04318,0.04318 0.02575,0.01287 0.06061,-0.01287 0.08635,0 0.01821,0.0091 0.02497,0.03407 0.04318,0.04318 0.03454,0.01727 0.09499,-0.01727 0.129531,0 0.01821,0.0091 0.02497,0.03407 0.04318,0.04318 0.02575,0.01287 0.06061,-0.01287 0.08635,0 0.01821,0.0091 0.02497,0.03408 0.04318,0.04318 0.03454,0.01727 0.09499,-0.01727 0.129531,0 0.01821,0.0091 0.02497,0.03408 0.04318,0.04318 0.01287,0.0064 0.033,-0.01018 0.04318,0 0.01018,0.01018 -0.01018,0.033 0,0.04318 0.01018,0.01018 0.033,-0.01018 0.04318,0 0.01018,0.01018 -0.01018,0.033 0,0.04318 0.01018,0.01018 0.033,-0.01018 0.04318,0 0.01018,0.01018 -0.01018,0.033 0,0.04318 0.01018,0.01018 0.02878,0 0.04318,0 0.02879,0 0.06061,-0.01287 0.08635,0 0.01287,0.0064 -0.01018,0.033 0,0.04318 0.02035,0.02035 0.06061,-0.01287 0.08635,0 0.01821,0.0091 0.02497,0.03408 0.04318,0.04318 0.01287,0.0064 0.02952,-0.0046 0.04318,0 0.312749,0.10425 -0.06807,-0.01245 0.129531,0.08635 0.01287,0.0064 0.0303,-0.0064 0.04318,0 0.05181,0.02591 0.07772,0.103625 0.129531,0.129531 0.01287,0.0064 0.033,-0.01018 0.04318,0 0.01018,0.01018 -0.01018,0.033 0,0.04318 0.01018,0.01018 0.033,-0.01018 0.04318,0 0.02276,0.02276 0.02533,0.05958 0.04318,0.08635 0.02258,0.03387 0.07348,0.04774 0.08635,0.08635 0.0091,0.02731 -0.0091,0.05905 0,0.08635 0.0064,0.01931 0.03408,0.02497 0.04318,0.04318 0.0064,0.01287 -0.0064,0.0303 0,0.04318 0.0091,0.0182 0.03408,0.02497 0.04318,0.04318 0.01287,0.02575 -0.01287,0.06061 0,0.08635 0.0091,0.0182 0.03408,0.02497 0.04318,0.04318 0.0064,0.01287 -0.0064,0.0303 0,0.04318 0.0091,0.0182 0.03408,0.02497 0.04318,0.04318 0.0064,0.01287 -0.0064,0.0303 0,0.04318 0.0091,0.0182 0.03408,0.02497 0.04318,0.04318 0.0064,0.01287 -0.0064,0.0303 0,0.04318 0.0091,0.0182 0.03408,0.02497 0.04318,0.04318 0.0064,0.01287 -0.0064,0.0303 0,0.04318 0.0091,0.0182 0.03408,0.02497 0.04318,0.04318 0.0064,0.01287 -0.0064,0.0303 0,0.04318 0.05335,0.106707 0.04318,-0.0149 0.04318,0.08635 0,0.01945 -0.0066,0.116391 0,0.129531 0.0091,0.0182 0.03407,0.02497 0.04318,0.04318 0.01727,0.03454 -0.01727,0.09499 0,0.129531 0.0091,0.0182 0.03407,0.02497 0.04318,0.04318 0.02286,0.04571 -0.02286,0.04064 0,0.08635 0.0091,0.0182 0.03407,0.02497 0.04318,0.04318 0.0064,0.01287 -0.01018,0.033 0,0.04318 0.01018,0.01018 0.033,-0.01018 0.04318,0 0.02035,0.02035 -0.01287,0.06061 0,0.08635 0.0091,0.0182 0.03407,0.02497 0.04318,0.04318 0.01287,0.02575 -0.02035,0.066 0,0.08635 0.01018,0.01018 0.033,-0.01018 0.04318,0 2.29e-4,2.29e-4 -3.61e-4,0.128087 0,0.12953 0.0078,0.03122 0.033,0.05582 0.04318,0.08635 0.0091,0.02731 -0.01287,0.06061 0,0.08635 0.0091,0.01821 0.03407,0.02497 0.04318,0.04318 0.02286,0.04571 -0.02286,0.04064 0,0.08635 0.0091,0.01821 0.03407,0.02497 0.04318,0.04318 0.01727,0.03454 -0.01727,0.09499 0,0.129531 0.0091,0.01821 0.03407,0.02497 0.04318,0.04318 0.0057,0.01135 0,0.150129 0,0.172707 0,0.01439 0,0.02878 0,0.04318 0,0.01439 -0.0064,0.0303 0,0.04318 0.0091,0.01821 0.03407,0.02497 0.04318,0.04318 0.0064,0.01287 -0.0046,0.02952 0,0.04318 0.01018,0.03053 0.033,0.05582 0.04318,0.08635 0.0046,0.01365 -0.0064,0.0303 0,0.04318 0.0091,0.01821 0.04318,0.02282 0.04318,0.04318 0,0.01439 -0.02878,0 -0.04318,0 -0.01439,0 -0.02878,0 -0.04318,0 0.01616,-0.07544 0.09413,-0.93133 0.302131,-1.295337 0.04164,-0.07286 0.092,-0.140824 0.129531,-0.215885 0.0064,-0.01287 -0.0064,-0.0303 0,-0.04318 0.0182,-0.03641 0.06815,-0.04994 0.08635,-0.08635 0.0064,-0.01287 -0.0064,-0.0303 0,-0.04318 0.0091,-0.01821 0.02878,-0.02878 0.04318,-0.04318 0.02878,-0.02878 0.06092,-0.05457 0.08635,-0.08635 0.03242,-0.04052 0.04966,-0.09284 0.08635,-0.12953 0.03669,-0.03669 0.08802,-0.05522 0.129531,-0.08635 0.06427,-0.0482 0.105888,-0.128161 0.172708,-0.172708 0.01197,-0.008 0.033,0.01018 0.04318,0 0.01018,-0.01018 -0.0064,-0.0303 0,-0.04318 0.02591,-0.05181 0.103625,-0.07772 0.129531,-0.129531 0.0064,-0.01287 -0.01018,-0.033 0,-0.04318 0.01018,-0.01018 0.033,0.01018 0.04318,0 0.01018,-0.01018 0,-0.02878 0,-0.04318 0.01439,0 0.03166,0.0086 0.04318,0 0.04885,-0.03664 0.08635,-0.08635 0.129531,-0.129531 0.01439,-0.01439 0.03407,-0.02497 0.04318,-0.04318 0.0064,-0.01287 -0.01018,-0.033 0,-0.04318 0.01018,-0.01018 0.0303,0.0064 0.04318,0 0.179693,-0.08985 -0.04616,0.003 0.04318,-0.08635 0.01018,-0.01018 0.033,0.01018 0.04318,0 0.01018,-0.01018 -0.01018,-0.033 0,-0.04318 0.02276,-0.02276 0.0636,-0.02042 0.08635,-0.04318 0.01018,-0.01018 -0.01018,-0.033 0,-0.04318 0.01018,-0.01018 0.033,0.01018 0.04318,0 0.01018,-0.01018 -0.01018,-0.033 0,-0.04318 0.08933,-0.08934 -0.0035,0.136515 0.08635,-0.04318 0.0064,-0.01287 -0.0064,-0.0303 0,-0.04318 0.02591,-0.05181 0.103625,-0.07772 0.129531,-0.129531 0.0064,-0.01287 -0.01018,-0.033 0,-0.04318 0.02035,-0.02035 0.06061,0.01287 0.08635,0 0.01821,-0.0091 0.02497,-0.03407 0.04318,-0.04318 0.02575,-0.01287 0.066,0.02035 0.08635,0 0.01018,-0.01018 -0.01018,-0.033 0,-0.04318 0.0088,-0.0088 0.112411,0.0086 0.12953,0 0.01821,-0.0091 0.02497,-0.03407 0.04318,-0.04318 0.02289,-0.01145 0.186512,0.0098 0.215885,0 0.01931,-0.0064 0.02497,-0.03407 0.04318,-0.04318 0.02575,-0.01287 0.06061,0.01287 0.08635,0 0.01821,-0.0091 0.02497,-0.03407 0.04318,-0.04318 0.02575,-0.01287 0.06061,0.01287 0.08635,0 0.01821,-0.0091 0.02497,-0.03407 0.04318,-0.04318 0.02714,-0.01357 0.14557,0.01357 0.172707,0 0.01821,-0.0091 0.02497,-0.03407 0.04318,-0.04318 0.02283,-0.01142 0.151673,0.0053 0.172708,0 0.03122,-0.0078 0.05582,-0.033 0.08635,-0.04318 0.0297,-0.0099 0.104056,0.01274 0.129531,0 0.01821,-0.0091 0.02387,-0.03674 0.04318,-0.04318 0.03375,-0.01125 0.235301,0.01188 0.259062,0 0.01821,-0.0091 0.02497,-0.03408 0.04318,-0.04318 0.01287,-0.0064 0.02878,0 0.04318,0 0.01439,0 0.02878,0 0.04318,0 0.08635,0 0.172708,0 0.259062,0 0.02837,0 0.10517,0.0081 0.129531,0 0.03053,-0.01018 0.05582,-0.033 0.08635,-0.04318 0.02731,-0.0091 0.05757,0 0.08635,0 0.100746,0 0.201492,0 0.302238,0 0.01047,0 0.128143,-0.0014 0.129531,0 0.01018,0.01018 -0.01287,0.03674 0,0.04318 0.03406,0.03862 0.09091,-0.01931 0.129531,0 0.01821,0.0091 0.02497,0.03407 0.04318,0.04318 0.01287,0.0064 0.02878,0 0.04318,0 0.01439,0.01439 0.02497,0.03407 0.04318,0.04318 0.02575,0.01287 0.06061,-0.01287 0.08635,0 0.01821,0.0091 0.02497,0.03407 0.04318,0.04318 0.01287,0.0064 0.0303,-0.0064 0.04318,0 0.197603,0.0988 -0.183218,-0.0179 0.12953,0.08635 0.02731,0.0091 0.06061,-0.01287 0.08635,0 0.01821,0.0091 0.02497,0.03408 0.04318,0.04318 0.01287,0.0064 0.0303,-0.0064 0.04318,0 0.01821,0.0091 0.02497,0.03408 0.04318,0.04318 0.01287,0.0064 0.033,-0.01018 0.04318,0 0.01018,0.01018 -0.01018,0.033 0,0.04318 0.01018,0.01018 0.0303,-0.0064 0.04318,0 0.0182,0.0091 0.02497,0.03408 0.04318,0.04318 0.01287,0.0064 0.0303,-0.0064 0.04318,0 0.0182,0.0091 0.02497,0.03408 0.04318,0.04318 0.03454,0.01727 0.09499,-0.01727 0.129531,0 0.0182,0.0091 0.02497,0.03408 0.04318,0.04318 0.01287,0.0064 0.033,-0.01018 0.04318,0 0.02276,0.02276 0.02878,0.05757 0.04318,0.08635 0.04318,0.04318 0.08262,0.09044 0.129531,0.129531 0.03987,0.03322 0.09284,0.04966 0.129531,0.08635 0.03669,0.03669 0.05522,0.08802 0.08635,0.129531 0.01221,0.01628 0.03407,0.02497 0.04318,0.04318 0.0064,0.01287 -0.01018,0.033 0,0.04318 0.01018,0.01018 0.033,-0.01018 0.04318,0 0.01018,0.01018 -0.0064,0.0303 0,0.04318 0.01821,0.03641 0.06377,0.05248 0.08635,0.08635 0.01785,0.02678 0.02533,0.05958 0.04318,0.08635 0.02258,0.03387 0.06815,0.04994 0.08635,0.08635 0.0064,0.01287 -0.0064,0.0303 0,0.04318 0.08985,0.179692 -0.003,-0.04616 0.08635,0.04318 0.01018,0.01018 -0.0046,0.02952 0,0.04318 0.01018,0.03053 0.02533,0.05958 0.04318,0.08635 0.02258,0.03387 0.06815,0.04994 0.08635,0.08635 0.0064,0.01287 0,0.02878 0,0.04318 0.01439,0.02878 0.02533,0.05958 0.04318,0.08635 0.02258,0.03387 0.06815,0.04994 0.08635,0.08635 0.0064,0.01287 -0.01018,0.033 0,0.04318 0.01018,0.01018 0.033,-0.01018 0.04318,0 0.01018,0.01018 -0.0064,0.0303 0,0.04318 0.01821,0.03641 0.06815,0.04994 0.08635,0.08635 0.0064,0.01287 -0.0064,0.0303 0,0.04318 0.0091,0.0182 0.03674,0.02387 0.04318,0.04318 0.0091,0.02731 -0.01287,0.06061 0,0.08635 0.0064,0.01287 0.033,-0.01018 0.04318,0 0.02035,0.02035 -0.01287,0.06061 0,0.08635 0.09201,0.184025 -0.0057,-0.09767 0.08635,0.08635 0.01287,0.02575 -0.02035,0.066 0,0.08635 0.01018,0.01018 0.033,-0.01018 0.04318,0 0.02035,0.02035 -0.02035,0.066 0,0.08635 0.01018,0.01018 0.033,-0.01018 0.04318,0 0.01018,0.01018 -0.0064,0.03031 0,0.04318 0.0091,0.01821 0.03407,0.02497 0.04318,0.04318 0.01171,0.02342 -0.01181,0.160894 0,0.172708 0.01018,0.01018 0.04318,0.01439 0.04318,0 0,-0.01807 -0.05257,0.01126 -0.08635,0 -0.14884,-0.04961 -0.03198,-0.04318 -0.129531,-0.04318"
     id="path4556-5"
     inkscape:connector-curvature="0" />
  <path
     style="fill:none;stroke:#000000;stroke-width:1px;stroke-linecap:butt;stroke-linejoin:miter;stroke-opacity:1"
     d="m 35.724407,5.6137753 c 4.652453,-1.525989 9.475093,-2.45632 15.265426,2.71e-4"
     id="path4654"
     inkscape:connector-curvature="0"
     sodipodi:nodetypes="cc" />
  <path
     style="fill:#cccccc;fill-opacity:1;stroke:#000000;stroke-width:0.12212284;stroke-opacity:1"
     d="m 42.300142,80.66604 c -0.571809,-0.905147 -1.025211,-1.362412 -1.698749,-1.713223 -0.749033,-0.390132 -1.715864,-0.419025 -3.173087,-0.09482 -0.776089,0.172663 -1.0066,0.281791 -1.317938,0.623927 -0.207534,0.228064 -0.424749,0.385358 -0.4827,0.349543 -0.05795,-0.03582 -0.105367,0.01027 -0.105367,0.102423 0,0.09215 -0.153646,0.314746 -0.341437,0.494661 L 34.839427,80.75567 34.516731,80.097704 C 34.242902,79.539377 34.094257,79.39092 33.535164,79.117382 32.73799,78.727361 32.175396,78.624734 31.439482,78.73509 c -0.702708,0.105378 -1.864433,0.872916 -2.159567,1.426801 -0.120937,0.226968 -0.22219,0.328069 -0.225005,0.224667 -0.007,-0.256267 -0.828452,-1.826866 -1.122875,-2.146855 -0.130951,-0.142323 -0.523797,-0.415936 -0.872989,-0.60803 -0.524923,-0.288763 -0.769765,-0.346782 -1.413516,-0.334954 -0.698443,0.01283 -0.848604,0.06379 -1.458242,0.494864 -0.475733,0.33639 -0.795506,0.689839 -1.065892,1.178145 l -0.386268,0.697581 -0.682741,-1.561402 C 17.333446,67.313883 14.950426,55.849847 14.362252,41.110851 l -0.03484,-0.872888 0.491778,0.418684 c 0.677925,0.577164 3.811369,3.099804 4.358258,3.5087 l 0.447042,0.334243 0.341248,-0.447399 0.341249,-0.4474 -0.358882,-0.260974 C 16.439233,40.792213 10.837533,35.651384 8.2196333,32.58028 4.6076813,28.343038 2.4230246,24.426915 1.4409255,20.429058 1.1972735,19.437216 1.155216,18.949957 1.1510492,17.070679 1.1465792,15.056084 1.1732542,14.77556 1.4703542,13.712301 3.2611713,7.3033493 9.6515953,2.6447013 18.486165,1.3076993 c 1.795657,-0.27175 5.403303,-0.274242 7.144186,-0.0049 3.676991,0.568815 6.707994,1.901492 8.858338,3.894849 0.500681,0.464129 0.926967,0.772581 0.970461,0.702207 0.119218,-0.192898 0.307397,-0.148869 0.307397,0.07192 0,0.130045 0.07294,0.176433 0.213715,0.135915 0.117543,-0.03383 0.790745,-0.229759 1.496005,-0.435393 2.627185,-0.766014 3.641112,-0.918522 6.167203,-0.927629 2.610072,-0.0094 3.824785,0.187631 6.041534,0.980006 0.640043,0.228783 1.177453,0.415986 1.194245,0.416006 0.01679,2e-5 0.03053,-0.0824 0.03053,-0.183148 0,-0.209247 0.191606,-0.245033 0.307546,-0.05744 0.04428,0.07165 0.375756,-0.147542 0.770474,-0.509476 2.160443,-1.980996 4.808831,-3.265247 8.005938,-3.882225 7.688536,-1.48373401 16.498618,0.939724 21.501606,5.914615 3.65438,3.6338557 4.912738,8.1890137 3.677822,13.3134227 -1.619929,6.722062 -7.607232,14.205893 -17.55953,21.948538 l -1.187141,0.923567 0.261592,0.347785 c 0.143875,0.191282 0.299163,0.392015 0.345083,0.446074 0.08815,0.103765 2.333687,-1.610072 4.250713,-3.244219 l 1.139755,-0.97157 -0.07932,1.570258 c -0.744468,14.737524 -2.94685,25.300969 -7.479667,35.875279 -0.766086,1.78715 -0.95207,2.131725 -1.017848,1.885772 -0.286008,-1.069426 -1.403541,-2.078591 -2.456986,-2.218734 -0.716439,-0.09531 -1.470268,0.122419 -2.227395,0.643335 -0.477444,0.328491 -0.66021,0.577766 -1.10909,1.512688 -0.295593,0.615662 -0.540025,1.022289 -0.54318,0.903616 -0.0095,-0.359357 -1.08263,-1.28376 -1.746006,-1.504098 -1.023213,-0.339857 -2.350171,-0.08171 -3.120448,0.60706 -0.15461,0.138249 -0.388027,0.493066 -0.518702,0.78848 l -0.237592,0.537117 -0.379913,-0.371435 c -0.229006,-0.223895 -0.343653,-0.430104 -0.288628,-0.519136 0.05608,-0.09073 0.03233,-0.12805 -0.06157,-0.09675 -0.08407,0.02802 -0.327133,-0.123318 -0.540133,-0.336318 -0.303065,-0.303065 -0.594033,-0.433271 -1.338194,-0.59883 -2.458425,-0.546948 -3.635467,-0.133572 -4.780652,1.678964 -0.201491,0.318907 -0.407562,0.57993 -0.457938,0.580049 -0.05037,1.21e-4 -0.09159,-1.242684 -0.09159,-2.761788 v -2.762007 l 0.274777,0.07349 c 0.151127,0.04042 1.016926,0.109601 1.923999,0.153744 1.877861,0.09138 2.738597,-0.0725 3.428132,-0.652701 0.745905,-0.62764 1.072069,-1.935602 0.672484,-2.696769 -0.202248,-0.385261 -0.782989,-0.942287 -1.939154,-1.859966 -0.890811,-0.707059 -1.486499,-1.488842 -1.66666,-2.187328 -0.584327,-2.265441 -0.9888,-19.197441 -0.625932,-26.202576 0.146084,-2.820105 0.443112,-6.132161 0.62427,-6.961001 0.407038,-1.862291 1.158163,-4.882716 1.412195,-5.678712 0.255884,-0.8018 0.804696,-1.84181 1.391417,-2.636755 0.100752,-0.136507 0.451221,-0.376746 0.77882,-0.533863 0.327601,-0.157118 0.877154,-0.57233 1.221229,-0.922693 2.927528,-2.981034 3.750193,-9.766019 1.780527,-14.685024 C 51.300157,6.0031773 47.22142,5.2713633 44.720401,9.2840823 44.40858,9.7843793 43.97645,10.708676 43.76011,11.338076 l -0.393345,1.144365 -0.331894,-0.942118 c -0.77347,-2.1955787 -1.999716,-3.8531907 -3.33303,-4.5055197 -0.960523,-0.469941 -2.122492,-0.476499 -3.104423,-0.01752 -3.724499,1.740916 -5.381059,9.6766177 -3.21902,15.4206257 0.678515,1.802651 1.844971,3.29791 3.065012,3.928986 0.550664,0.284834 0.786608,0.513228 1.243633,1.203843 0.654287,0.988694 0.975031,1.814078 1.4269,3.671895 0.178948,0.735727 0.428801,1.74985 0.555228,2.253606 1.095136,4.36363 1.479218,13.668158 1.046032,25.34049 -0.223754,6.029153 -0.483954,9.339842 -0.786713,10.009829 -0.303024,0.670575 -0.857113,1.265968 -2.082036,2.237243 -1.585193,1.25694 -1.885763,2.014631 -1.299042,3.27468 0.63628,1.366479 1.968415,1.728244 5.13683,1.394998 0.601609,-0.06328 1.098799,-0.103516 1.104866,-0.08942 0.0061,0.01409 -0.01904,1.275793 -0.05579,2.803776 l -0.06682,2.778152 z"
     id="path4662"
     inkscape:connector-curvature="0" />
  <path
     style="fill:#cccccc;fill-opacity:1;stroke:#000000;stroke-width:0.12212284;stroke-opacity:1"
     d="m 38.396864,74.599793 c -0.765012,-0.286888 -1.220673,-1.097217 -0.926291,-1.647276 0.07298,-0.136362 0.643371,-0.654491 1.267537,-1.151394 1.470857,-1.170961 2.192912,-2.102056 2.44512,-3.152994 0.183605,-0.765073 0.467485,-5.023215 0.629681,-9.44507 0.372336,-10.150788 0.129845,-19.376548 -0.627533,-23.875015 -0.236249,-1.403207 -1.024415,-4.698754 -1.44744,-6.052162 -0.16917,-0.541235 -0.499953,-1.303528 -0.735074,-1.693984 -0.23512,-0.390457 -0.427492,-0.730741 -0.427492,-0.756187 0,-0.02545 0.101133,-0.04627 0.22474,-0.04627 0.123607,0 0.560315,-0.167689 0.970462,-0.372642 1.504398,-0.751756 2.704613,-2.536048 3.526889,-5.243227 0.0303,-0.09977 0.190081,0.21944 0.35506,0.70936 0.850176,2.52468 2.333187,4.334501 3.929409,4.795329 0.285462,0.08241 0.519022,0.176281 0.519022,0.208596 0,0.03231 -0.172812,0.33961 -0.384027,0.682876 -0.494229,0.803221 -0.860338,1.890927 -1.402122,4.165683 -0.712207,2.990299 -0.893725,3.955132 -1.022411,5.434467 -0.06719,0.772427 -0.176293,1.926487 -0.242446,2.564579 -0.584401,5.636917 -0.235812,25.732787 0.502701,28.980393 0.190305,0.836862 0.930424,1.870775 1.896571,2.649423 1.90489,1.53521 2.110955,1.867475 1.638599,2.642123 -0.400948,0.65754 -1.094225,0.833749 -2.792977,0.709892 -1.767114,-0.128843 -3.883299,-0.134446 -5.887627,-0.01559 -1.221224,0.07242 -1.6233,0.05423 -2.010351,-0.09091 z"
     id="path4664"
     inkscape:connector-curvature="0" />
</svg>
