<?xml version="1.0" encoding="UTF-8" standalone="no"?>
<!-- Created with Inkscape (http://www.inkscape.org/) -->

<svg
   xmlns:dc="http://purl.org/dc/elements/1.1/"
   xmlns:cc="http://creativecommons.org/ns#"
   xmlns:rdf="http://www.w3.org/1999/02/22-rdf-syntax-ns#"
   xmlns:svg="http://www.w3.org/2000/svg"
   xmlns="http://www.w3.org/2000/svg"
   xmlns:sodipodi="http://sodipodi.sourceforge.net/DTD/sodipodi-0.dtd"
   xmlns:inkscape="http://www.inkscape.org/namespaces/inkscape"
   version="1.1"
   id="svg815"
   width="769.74786"
   height="449.53601"
   viewBox="0 0 769.74787 449.53601"
   sodipodi:docname="hole.svg"
   inkscape:version="0.92.3 (2405546, 2018-03-11)"
   inkscape:export-filename="C:\Users\mbrin\Documents\NetBeansProjects\abbozza-worlds\pkg\worlds\hathi\img\hole.png"
   inkscape:export-xdpi="9.9799995"
   inkscape:export-ydpi="9.9799995">
  <metadata
     id="metadata821">
    <rdf:RDF>
      <cc:Work
         rdf:about="">
        <dc:format>image/svg+xml</dc:format>
        <dc:type
           rdf:resource="http://purl.org/dc/dcmitype/StillImage" />
        <dc:title />
      </cc:Work>
    </rdf:RDF>
  </metadata>
  <defs
     id="defs819" />
  <sodipodi:namedview
     pagecolor="#ffffff"
     bordercolor="#666666"
     borderopacity="1"
     objecttolerance="10"
     gridtolerance="10"
     guidetolerance="10"
     inkscape:pageopacity="0"
     inkscape:pageshadow="2"
     inkscape:window-width="1536"
     inkscape:window-height="801"
     id="namedview817"
     showgrid="false"
     inkscape:zoom="0.25626528"
     inkscape:cx="-825.40134"
     inkscape:cy="-60.318773"
     inkscape:window-x="-8"
     inkscape:window-y="-8"
     inkscape:window-maximized="1"
     inkscape:current-layer="svg815" />
  <path
     style="fill:#917c6f;stroke:#000000;stroke-width:10;stroke-linecap:butt;stroke-linejoin:miter;stroke-miterlimit:4;stroke-dasharray:none;stroke-opacity:1"
     d="m 106.40773,85.283699 21.46214,-28.291 30.2421,-13.65772 39.02206,-8.29219 18.53548,-6.82886 22.43769,-9.26774 28.77877,2.43888 34.1443,2.43888 26.3399,7.31664 23.41323,4.87775 33.65653,1.46333"
     id="path825"
     inkscape:connector-curvature="0" />
  <path
     style="fill:#917c6f;stroke:#000000;stroke-width:10;stroke-linecap:butt;stroke-linejoin:miter;stroke-miterlimit:4;stroke-dasharray:none;stroke-opacity:1"
     d="m 110.79772,81.381489 c -42.930347,7.12708 -45.168644,29.072041 -68.288617,52.192011 -4.961469,4.96147 -3.805616,15.51224 -9.26774,20.97436 -4.296523,4.29652 -1.443867,16.56492 -5.85331,20.97436 -10.014119,10.01412 -15.262477,18.47199 -20.4865825,34.1443 -8.4390366,25.31711 13.5817275,53.99113 22.9254615,72.6786 17.160491,34.32098 84.660178,59.7836 110.237328,85.36076 16.02486,16.02486 60.57017,-6.25511 72.6786,5.85331 7.33428,7.33428 25.04504,6.66921 36.0954,12.19439 8.42385,4.21193 14.7327,16.63409 21.46214,19.99881 12.84521,6.42261 31.9567,-4.75212 45.36315,1.9511 9.77201,4.88601 17.05044,16.57353 30.72987,23.41324 9.75227,4.87614 151.42956,14.90198 153.64938,12.68217 8.69012,-8.69012 31.36077,-5.50865 39.99761,-14.14549 9.95206,-9.95207 31.07445,-27.26771 47.31425,-32.68098 14.7511,-4.91704 29.11397,-4.2374 41.46094,-16.58438 39.59778,-39.59777 75.54404,-78.44009 104.8718,-122.43172 9.35138,-14.02707 -3.66068,-42.06713 7.31664,-58.5331 3.83251,-5.74877 28.51256,-37.82494 22.92546,-43.41204 -10.58697,-10.58697 -11.82485,-36.21364 -24.87657,-49.26536 -16.39923,-16.399231 -40.58985,-26.444351 -55.11866,-40.973161 -2.15541,-2.15541 -7.19191,2.5636 -9.26774,0.48777 -2.39663,-2.39662 2.17895,-7.57656 -0.48778,-10.24329 -20.3294,-20.3294 -11.10353,-15.79506 -44.87537,-32.68098 -4.97447,-2.48723 -24.01294,-11.10691 -29.75432,-5.36553 -0.98808,0.98808 -9.70811,12.72958 -10.24329,12.19439 C 566.44268,7.3019493 526.95632,16.406829 494.18949,8.2151193 437.7035,-5.9063707 356.03596,31.628359 312.7369,31.628359"
     id="path827"
     inkscape:connector-curvature="0"
     sodipodi:nodetypes="cssssssssssscsssssssscssscsc" />
  <path
     style="fill:none;stroke:#000000;stroke-width:10;stroke-linecap:butt;stroke-linejoin:miter;stroke-miterlimit:4;stroke-dasharray:none;stroke-opacity:1"
     d="m 628.32783,52.602719 c -18.61581,39.38922 -36.28449,207.006021 -55.60644,226.327971 -2.60133,2.60133 -12.71928,61.65742 -20.97436,74.62969"
     id="path829"
     inkscape:connector-curvature="0" />
  <path
     style="fill:none;stroke:#000000;stroke-width:10;stroke-linecap:butt;stroke-linejoin:miter;stroke-miterlimit:4;stroke-dasharray:none;stroke-opacity:1"
     d="m 692.71423,121.37911 c -26.72283,56.55752 -6.48774,136.06554 -39.99761,186.33035"
     id="path831"
     inkscape:connector-curvature="0" />
  <path
     style="fill:none;stroke:#000000;stroke-width:10;stroke-linecap:butt;stroke-linejoin:miter;stroke-miterlimit:4;stroke-dasharray:none;stroke-opacity:1"
     d="m 708.32306,165.27893 c -15.10952,15.90157 -12.1944,49.98957 -12.1944,64.3864"
     id="path833"
     inkscape:connector-curvature="0" />
  <path
     style="fill:none;stroke:#000000;stroke-width:10;stroke-linecap:butt;stroke-linejoin:miter;stroke-miterlimit:4;stroke-dasharray:none;stroke-opacity:1"
     d="m 692.71423,259.41965 c -1.23037,18.73627 -2.71311,23.9253 -16.0966,34.63209"
     id="path835"
     inkscape:connector-curvature="0" />
  <path
     style="fill:none;stroke:#000000;stroke-width:10;stroke-linecap:butt;stroke-linejoin:miter;stroke-miterlimit:4;stroke-dasharray:none;stroke-opacity:1"
     d="m 669.78877,313.56277 c -5.66451,9.46694 -8.99506,18.81203 -15.60882,27.31544"
     id="path837"
     inkscape:connector-curvature="0" />
  <path
     style="fill:none;stroke:#000000;stroke-width:10;stroke-linecap:butt;stroke-linejoin:miter;stroke-miterlimit:4;stroke-dasharray:none;stroke-opacity:1"
     d="m 742.46736,180.39998 c -33.51889,27.20313 -37.71086,75.13677 -49.26535,113.65176"
     id="path839"
     inkscape:connector-curvature="0" />
  <path
     style="fill:none;stroke:#000000;stroke-width:10;stroke-linecap:butt;stroke-linejoin:miter;stroke-miterlimit:4;stroke-dasharray:none;stroke-opacity:1"
     d="M 529.79712,73.577079 C 514.63158,128.3507 484.05177,182.69321 474.67845,238.93307 c -4.33759,26.02558 -1.6637,53.2941 -6.34108,79.01968"
     id="path841"
     inkscape:connector-curvature="0" />
  <path
     style="fill:none;stroke:#000000;stroke-width:10;stroke-linecap:butt;stroke-linejoin:miter;stroke-miterlimit:4;stroke-dasharray:none;stroke-opacity:1"
     d="m 514.67607,58.456029 c -9.87788,14.34073 -21.62541,33.65449 -15.60883,51.704231"
     id="path843"
     inkscape:connector-curvature="0" />
  <path
     style="fill:none;stroke:#000000;stroke-width:10;stroke-linecap:butt;stroke-linejoin:miter;stroke-miterlimit:4;stroke-dasharray:none;stroke-opacity:1"
     d="m 380.04995,49.188289 c -6.84621,20.78264 -33.01705,76.564471 -16.0966,101.945141 4.83899,7.25848 12.08332,-8.40326 13.16995,-7.31664 4.06731,4.06732 -1.90549,38.21495 -2.92666,45.36315 -9.33489,65.34424 19.27393,120.27068 31.70543,182.42815"
     id="path845"
     inkscape:connector-curvature="0" />
  <path
     style="fill:none;stroke:#000000;stroke-width:10;stroke-linecap:butt;stroke-linejoin:miter;stroke-miterlimit:4;stroke-dasharray:none;stroke-opacity:1"
     d="m 293.22586,101.3803 c -3.04928,33.21109 -1.45622,68.85454 1.46333,100.96959"
     id="path847"
     inkscape:connector-curvature="0" />
  <path
     style="fill:none;stroke:#000000;stroke-width:10;stroke-linecap:butt;stroke-linejoin:miter;stroke-miterlimit:4;stroke-dasharray:none;stroke-opacity:1"
     d="m 297.61584,192.1066 c 9.72785,50.63447 31.82607,148.47001 15.12105,190.23255"
     id="path849"
     inkscape:connector-curvature="0" />
  <path
     style="fill:none;stroke:#000000;stroke-width:10;stroke-linecap:butt;stroke-linejoin:miter;stroke-miterlimit:4;stroke-dasharray:none;stroke-opacity:1"
     d="m 216.15729,120.40355 c 14.95404,88.75728 33.5697,169.85332 41.94871,253.64342"
     id="path851"
     inkscape:connector-curvature="0" />
  <path
     style="fill:none;stroke:#000000;stroke-width:10;stroke-linecap:butt;stroke-linejoin:miter;stroke-miterlimit:4;stroke-dasharray:none;stroke-opacity:1"
     d="m 118.60213,119.428 c -0.16259,4.87776 -1.01234,9.78108 -0.48778,14.63328 0.42784,3.95746 29.72519,60.88457 33.16876,71.21526 10.82115,32.46347 15.54822,71.09707 19.02325,105.84735"
     id="path853"
     inkscape:connector-curvature="0" />
  <path
     style="fill:none;stroke:#000000;stroke-width:10;stroke-linecap:butt;stroke-linejoin:miter;stroke-miterlimit:4;stroke-dasharray:none;stroke-opacity:1"
     d="m 60.556807,201.37434 c 16.850665,23.13564 20.385617,38.91322 29.266547,68.28861"
     id="path855"
     inkscape:connector-curvature="0" />
  <path
     style="fill:none;stroke:#000000;stroke-width:10;stroke-linecap:butt;stroke-linejoin:miter;stroke-miterlimit:4;stroke-dasharray:none;stroke-opacity:1"
     d="m 97.139988,249.17636 c 4.718892,13.25598 8.298032,26.85104 11.706622,40.48539"
     id="path857"
     inkscape:connector-curvature="0" />
  <path
     style="fill:none;stroke:#000000;stroke-width:10;stroke-linecap:butt;stroke-linejoin:miter;stroke-miterlimit:4;stroke-dasharray:none;stroke-opacity:1"
     d="m 112.74882,261.37076 c 15.05383,-29.61955 102.14534,-77.35284 141.94275,-80.97078"
     id="path859"
     inkscape:connector-curvature="0" />
  <path
     style="fill:none;stroke:#000000;stroke-width:10;stroke-linecap:butt;stroke-linejoin:miter;stroke-miterlimit:4;stroke-dasharray:none;stroke-opacity:1"
     d="m 158.59974,250.15191 c 4.0648,-2.76406 7.57739,-6.6052 12.1944,-8.29218 15.48745,-5.65888 33.53182,-2.15313 49.75313,-9.26774 18.55762,-8.13931 37.86188,-24.25431 58.04532,-28.291"
     id="path861"
     inkscape:connector-curvature="0" />
  <path
     style="fill:none;stroke:#000000;stroke-width:10;stroke-linecap:butt;stroke-linejoin:miter;stroke-miterlimit:4;stroke-dasharray:none;stroke-opacity:1"
     d="m 213.23063,148.20677 c 39.92711,-25.84362 87.66929,-47.53335 136.08945,-42.43649"
     id="path863"
     inkscape:connector-curvature="0" />
  <path
     style="fill:none;stroke:#000000;stroke-width:10;stroke-linecap:butt;stroke-linejoin:miter;stroke-miterlimit:4;stroke-dasharray:none;stroke-opacity:1"
     d="m 176.64745,89.185899 c 24.60301,-10.6725 53.95658,-29.51128 81.94633,-22.92546 15.29865,3.59968 22.6775,15.43933 39.99761,10.24329"
     id="path865"
     inkscape:connector-curvature="0" />
  <path
     style="fill:none;stroke:#000000;stroke-width:10;stroke-linecap:butt;stroke-linejoin:miter;stroke-miterlimit:4;stroke-dasharray:none;stroke-opacity:1"
     d="m 203.47512,322.34273 c 18.22065,-10.20425 32.87239,-15.62218 53.65533,-17.07215"
     id="path867"
     inkscape:connector-curvature="0" />
  <path
     style="fill:none;stroke:#000000;stroke-width:10;stroke-linecap:butt;stroke-linejoin:miter;stroke-miterlimit:4;stroke-dasharray:none;stroke-opacity:1"
     d="m 231.76611,361.85257 c 17.23392,-11.01899 37.29488,-15.87804 56.58199,-21.94991"
     id="path869"
     inkscape:connector-curvature="0" />
  <path
     style="fill:none;stroke:#000000;stroke-width:10;stroke-linecap:butt;stroke-linejoin:miter;stroke-miterlimit:4;stroke-dasharray:none;stroke-opacity:1"
     d="m 359.07559,227.22645 c 27.57751,-13.27637 68.38754,-27.95876 98.04294,-16.0966"
     id="path871"
     inkscape:connector-curvature="0" />
  <path
     style="fill:none;stroke:#000000;stroke-width:10;stroke-linecap:butt;stroke-linejoin:miter;stroke-miterlimit:4;stroke-dasharray:none;stroke-opacity:1"
     d="m 379.56218,173.57112 c 15.05389,-6.27774 30.24256,-7.51184 46.3387,-10.73107"
     id="path873"
     inkscape:connector-curvature="0" />
  <path
     style="fill:none;stroke:#000000;stroke-width:10;stroke-linecap:butt;stroke-linejoin:miter;stroke-miterlimit:4;stroke-dasharray:none;stroke-opacity:1"
     d="m 384.92771,119.91578 c 11.66734,-23.303531 20.86963,-19.55421 39.02206,-16.0966"
     id="path875"
     inkscape:connector-curvature="0" />
  <path
     style="fill:none;stroke:#000000;stroke-width:10;stroke-linecap:butt;stroke-linejoin:miter;stroke-miterlimit:4;stroke-dasharray:none;stroke-opacity:1"
     d="m 435.16862,101.86807 c 7.13971,-9.004841 16.59944,-11.470261 25.85211,-16.096601"
     id="path877"
     inkscape:connector-curvature="0" />
  <path
     style="fill:none;stroke:#000000;stroke-width:10;stroke-linecap:butt;stroke-linejoin:miter;stroke-miterlimit:4;stroke-dasharray:none;stroke-opacity:1"
     d="m 414.19426,47.237189 c 12.6545,4.19795 24.80376,9.03789 37.55873,12.68217"
     id="path879"
     inkscape:connector-curvature="0" />
  <path
     style="fill:none;stroke:#000000;stroke-width:10;stroke-linecap:butt;stroke-linejoin:miter;stroke-miterlimit:4;stroke-dasharray:none;stroke-opacity:1"
     d="m 459.06963,58.943809 c 6.38954,-3.35843 12.31795,-0.64832 18.53548,-0.97556"
     id="path881"
     inkscape:connector-curvature="0" />
  <path
     style="fill:none;stroke:#000000;stroke-width:10;stroke-linecap:butt;stroke-linejoin:miter;stroke-miterlimit:4;stroke-dasharray:none;stroke-opacity:1"
     d="m 499.06724,81.869269 c 18.94572,-8.42486 34.2333,4.88665 53.65534,6.82886"
     id="path883"
     inkscape:connector-curvature="0" />
  <path
     style="fill:none;stroke:#000000;stroke-width:10;stroke-linecap:butt;stroke-linejoin:miter;stroke-miterlimit:4;stroke-dasharray:none;stroke-opacity:1"
     d="m 484.92175,139.91459 c 40.14988,-16.94908 70.96476,17.13147 101.94514,24.87656 14.90958,3.7274 30.13319,-1.97288 44.87537,0.97555"
     id="path885"
     inkscape:connector-curvature="0" />
  <path
     style="fill:none;stroke:#000000;stroke-width:10;stroke-linecap:butt;stroke-linejoin:miter;stroke-miterlimit:4;stroke-dasharray:none;stroke-opacity:1"
     d="m 546.3815,164.30338 c 37.05164,-2.66903 86.4944,39.03218 76.09302,62.4353"
     id="path887"
     inkscape:connector-curvature="0" />
  <path
     style="fill:none;stroke:#000000;stroke-width:10;stroke-linecap:butt;stroke-linejoin:miter;stroke-miterlimit:4;stroke-dasharray:none;stroke-opacity:1"
     d="m 557.60034,234.54309 c 20.72453,5.80261 40.00345,14.54724 59.50865,23.41324"
     id="path889"
     inkscape:connector-curvature="0" />
  <path
     style="fill:none;stroke:#000000;stroke-width:10;stroke-linecap:butt;stroke-linejoin:miter;stroke-miterlimit:4;stroke-dasharray:none;stroke-opacity:1"
     d="m 482.97064,341.85376 c 21.30461,-10.48991 61.32932,-13.78815 79.99523,4.87776"
     id="path891"
     inkscape:connector-curvature="0" />
  <path
     style="fill:none;stroke:#000000;stroke-width:10;stroke-linecap:butt;stroke-linejoin:miter;stroke-miterlimit:4;stroke-dasharray:none;stroke-opacity:1"
     d="m 551.74703,329.17159 c 18.43024,6.32617 32.40201,1.65501 50.72868,-2.92665"
     id="path893"
     inkscape:connector-curvature="0" />
  <path
     style="fill:none;stroke:#000000;stroke-width:10;stroke-linecap:butt;stroke-linejoin:miter;stroke-miterlimit:4;stroke-dasharray:none;stroke-opacity:1"
     d="m 505.40833,349.65818 c 13.00953,2.54869 42.3262,4.51951 46.3387,3.9022"
     id="path895"
     inkscape:connector-curvature="0" />
  <path
     style="fill:none;stroke:#000000;stroke-width:10;stroke-linecap:butt;stroke-linejoin:miter;stroke-miterlimit:4;stroke-dasharray:none;stroke-opacity:1"
     d="m 570.28251,386.24136 c 21.15423,-15.377 42.78791,-31.13584 64.87418,-44.3876"
     id="path897"
     inkscape:connector-curvature="0" />
  <path
     style="fill:none;stroke:#000000;stroke-width:10;stroke-linecap:butt;stroke-linejoin:miter;stroke-miterlimit:4;stroke-dasharray:none;stroke-opacity:1"
     d="M 321.02908,318.44053 C 371.01307,288.73092 431.70205,277.1115 488.82395,285.27177"
     id="path899"
     inkscape:connector-curvature="0" />
  <path
     style="fill:none;stroke:#000000;stroke-width:10;stroke-linecap:butt;stroke-linejoin:miter;stroke-miterlimit:4;stroke-dasharray:none;stroke-opacity:1"
     d="m 54.215722,276.97958 c 39.943096,27.74201 90.557448,41.14618 121.943948,79.50746"
     id="path901"
     inkscape:connector-curvature="0" />
  <g
     id="g914"
     transform="translate(-6.7562515,-194.21183)" />
  <path
     style="fill:#483737;fill-opacity:1;stroke:#000000;stroke-width:10;stroke-linecap:butt;stroke-linejoin:miter;stroke-miterlimit:4;stroke-dasharray:none;stroke-opacity:1"
     d="m 288.3481,407.94738 c 21.26325,-23.82684 59.85275,-24.87656 90.23852,-24.87656 8.39132,0 17.51084,2.15603 25.85212,0.48777 22.75172,-4.55034 49.9804,-14.08868 74.14192,-8.0483 27.76633,6.94159 56.37001,7.82037 81.21467,20.2427 2.7087,1.35435 15.36494,3.6983 15.36494,6.34108 0,1.46559 -2.83524,0.8079 -4.1461,1.46333 -8.77146,4.38573 -16.75411,14.01477 -25.36434,19.75492 -3.85154,2.56769 -11.20886,7.79443 -14.87716,11.46273 -3.96133,3.96133 -15.05563,-0.55319 -18.53548,2.92666 -2.93907,2.93907 -7.91835,4.93472 -11.70662,6.82886 -0.38459,0.19229 -47.51037,-4.97582 -49.75313,-6.0972 -4.28695,-2.14348 -35.63329,0.0727 -45.36315,-3.17054 -4.30204,-1.43402 -14.95051,-0.3475 -19.26714,0.73166 -19.55337,4.88834 -46.01626,-9.18919 -56.82588,-19.99881 -12.97232,-12.97231 -42.13952,-8.57912 -41.70483,-12.92606"
     id="path916"
     inkscape:connector-curvature="0" />
</svg>
